<svg width="1057" height="1014" viewBox="0 0 1057 1014" fill="none" xmlns="http://www.w3.org/2000/svg">
<g filter="url(#filter0_d_330_177)">
<g clip-path="url(#clip0_330_177)">
<path d="M155.446 142.598H160.638V153.055C162.56 153.055 164.261 153.055 165.964 153.058C165.967 153.061 165.888 152.991 165.888 152.991V158.249H160.913V163.617H182.193V169.293H177.09V179.806H171.886V174.704C169.756 174.704 167.875 174.704 165.994 174.704C165.994 172.988 165.994 171.273 165.994 169.551H160.921V174.636H166.062V179.884H160.877V185.097H182.154V190.386H177.23V201.06H182.342L182.274 200.992V211.934H177.2V222.617H182.347L182.282 222.548V227.886L182.347 227.816H160.842V232.976H155.554V227.962H150.167C150.167 225.997 150.167 224.276 150.167 222.556C151.884 222.556 153.598 222.556 155.321 222.556V217.483H150.235V222.624H145.02V227.892C143.069 227.892 141.353 227.892 139.638 227.892C139.638 226.176 139.638 224.462 139.638 222.739H134.565V227.824H139.706V232.968H128.732V228.041H123.438V232.988H118.23V217.483H112.861V233.003H107.736V206.731C109.414 206.731 111.135 206.731 112.856 206.731C112.856 208.442 112.856 210.153 112.856 211.895H118.16V206.819C119.908 206.791 121.656 206.762 123.404 206.734C123.404 208.458 123.404 210.182 123.404 212.009H128.68V217.135H139.732V212.012H150.05V195.707H144.908L144.976 195.775V190.358H139.576V180.096H128.526V185.295H123.529V190.592H128.514V195.804H123.407C123.407 197.724 123.407 199.388 123.407 201.052C121.701 201.052 119.995 201.052 118.233 201.052C118.233 203.148 118.233 205.016 118.23 206.879C116.414 206.851 114.599 206.824 112.786 206.797V201.095H107.593V190.445L107.523 190.51H112.899V185.108H118.133V179.901L118.067 179.968H123.335C123.335 176.198 123.335 172.779 123.335 169.361C125.059 169.361 126.783 169.361 128.758 169.361V174.535H139.721V169.282H145.018V163.589H150.171C150.171 161.669 150.171 160.003 150.171 158.339C151.893 158.339 153.617 158.339 155.513 158.339V142.525L155.448 142.595L155.446 142.598ZM150.178 179.893H155.321V169.572H150.247C150.247 173.153 150.247 176.558 150.247 179.962H145.093V185.034H150.178V179.893ZM155.611 190.588V206.612H171.595V190.588H155.611ZM171.644 222.48V212.192H165.912V217.388H160.906V222.48H171.644Z" fill="black"/>
<path d="M197.948 137.105C195.785 137.105 193.725 137.105 191.663 137.105C182.165 137.105 172.667 137.093 163.168 137.117C161.857 137.12 160.891 137.117 160.902 135.293C160.972 123.881 160.942 112.468 160.955 101.055C160.955 100.75 161.062 100.446 161.14 100.029H197.948V137.106V137.105ZM166.498 105.309V131.598H192.815V105.309H166.498Z" fill="black"/>
<path d="M65.082 100H101.948V136.873H65.082V100ZM70.3735 105.262V131.537H96.7566V105.262H70.3735Z" fill="black"/>
<path d="M65 232.955V196.084H101.869V232.955H65ZM70.2931 227.726H96.7617V201.408H70.2931V227.726Z" fill="black"/>
<path d="M123.338 126.306H139.607V121.082H144.824V115.885H150.124V120.889H155.445C155.445 128.295 155.445 135.447 155.445 142.598L155.51 142.529C153.734 142.553 151.956 142.578 150.179 142.602C150.179 139.135 150.179 135.666 150.179 132.18H145.101V142.534H150.247V147.916H134.423V153.139C130.728 153.139 127.032 153.139 123.337 153.139C123.337 151.421 123.337 149.704 123.337 147.75H128.603C128.603 145.844 128.603 144.186 128.603 142.529C132.241 142.529 135.88 142.529 139.477 142.529V132.148H134.336V137.328C132.256 137.328 130.432 137.328 128.608 137.328C128.608 135.604 128.608 133.88 128.608 132.053H123.332C123.356 130.115 123.38 128.176 123.402 126.238L123.337 126.308L123.338 126.306Z" fill="black"/>
<path d="M107.592 190.443H91.3709V180.018H75.4837V174.631L75.4141 174.696H80.7531V169.357L80.6866 169.424H86.0905V174.764H118.066V179.964L118.132 179.898H107.522V190.506L107.592 190.441V190.443ZM102.166 180.072H97.1706V185.024H102.166V180.072Z" fill="black"/>
<path d="M182.342 201.06V195.812H192.717V185.258H187.668V179.967H182.43V174.762H187.54V163.771H197.939V174.597H192.991V179.804H197.96V200.992C192.735 200.992 187.503 200.992 182.273 200.992L182.342 201.06Z" fill="black"/>
<path d="M112.802 121.037H117.987V115.679C119.913 115.679 121.612 115.679 123.314 115.682C123.317 115.685 123.238 115.615 123.238 115.615C123.271 119.179 123.306 122.742 123.339 126.306L123.404 126.236H118.136C118.136 128.405 118.136 130.229 118.136 132.051C116.412 132.051 114.688 132.051 112.794 132.051V137.323L112.859 137.253H107.723V126.354H112.868V120.971L112.8 121.039L112.802 121.037Z" fill="black"/>
<path d="M128.681 110.483V105.235H139.583V100.098H155.319V105.104H145.051V110.415H128.613L128.681 110.483Z" fill="black"/>
<path d="M91.3735 147.698H80.8396V152.941H75.5386V147.946H65.0664V142.693H91.3102C91.3102 144.46 91.3102 146.116 91.307 147.775C91.3038 147.778 91.3735 147.699 91.3735 147.699V147.698Z" fill="black"/>
<path d="M75.4853 169.426V158.486H85.9036V153.14H91.2949L91.23 153.07V163.722H80.6866V169.429L80.7531 169.362H75.4141L75.4837 169.427L75.4853 169.426Z" fill="black"/>
<path d="M75.4844 174.631H70.2293V190.345H65.0898V169.424C68.5257 169.424 72.0058 169.424 75.4844 169.424L75.4148 169.359C75.4148 171.139 75.4148 172.918 75.4148 174.698L75.4844 174.633V174.631Z" fill="black"/>
<path d="M97.0501 147.864V142.641H112.86C112.86 140.692 112.86 138.973 112.86 137.254L112.795 137.324C114.576 137.301 116.356 137.279 118.137 137.259V147.799H96.9805L97.0501 147.864Z" fill="black"/>
<path d="M177.004 147.805V158.206H171.8V152.994C169.665 152.994 167.78 152.994 165.891 152.991C165.888 152.988 165.967 153.058 165.964 153.056C165.96 149.641 165.96 146.231 165.96 142.691H171.654V147.873H177.071L177.003 147.805H177.004Z" fill="black"/>
<path d="M192.82 222.548V227.798H198.001V232.938H182.346V227.814L182.281 227.883H187.62V222.545L187.554 222.611H192.893L192.823 222.547L192.82 222.548Z" fill="black"/>
<path d="M187.624 217.342V212.203H197.971V222.547H192.82L192.89 222.612V217.274H187.551L187.62 217.339L187.624 217.342Z" fill="black"/>
<path d="M85.8731 185.361V190.361H75.6289V185.361H85.8731Z" fill="black"/>
<path d="M91.2931 153.139C91.3184 151.328 91.3437 149.516 91.3706 147.701C91.3738 147.698 91.3041 147.777 91.3057 147.774C93.2216 147.803 95.1342 147.833 97.0469 147.863L96.9772 147.798C96.9994 149.579 97.0216 151.358 97.0421 153.139C95.1041 153.116 93.1646 153.092 91.2266 153.07L91.2915 153.139H91.2931Z" fill="black"/>
<path d="M128.531 115.861H134.274V120.81H128.595C128.595 119.195 128.595 117.492 128.598 115.785C128.601 115.782 128.531 115.861 128.531 115.861Z" fill="black"/>
<path d="M187.389 158.323H182.496V153.262H187.389V158.323Z" fill="black"/>
<path d="M112.869 105.214V100.086H117.943V105.146H112.801L112.869 105.214Z" fill="black"/>
<path d="M70.0458 158.262H65.082V153.256H70.0474V158.262H70.0458Z" fill="black"/>
<path d="M192.832 147.873H197.96V152.947H192.9V147.805L192.832 147.873Z" fill="black"/>
<path d="M192.899 147.804H187.758V142.719H192.831C192.831 144.441 192.831 146.156 192.831 147.872L192.899 147.804Z" fill="black"/>
<path d="M177.072 147.873V142.732H182.158V147.805C180.435 147.805 178.72 147.805 177.004 147.805L177.072 147.873Z" fill="black"/>
<path d="M112.868 120.97H107.727V115.885H112.8C112.8 117.607 112.8 119.322 112.8 121.038L112.868 120.97Z" fill="black"/>
<path d="M128.612 110.416C128.585 112.229 128.56 114.043 128.53 115.859C128.527 115.862 128.596 115.783 128.595 115.786C126.809 115.734 125.026 115.677 123.238 115.62C123.235 115.617 123.314 115.686 123.311 115.685C123.308 114.033 123.308 112.385 123.308 110.486C125.248 110.486 126.964 110.486 128.679 110.486L128.611 110.418L128.612 110.416Z" fill="black"/>
<path d="M182.348 222.617V217.342H187.623L187.554 217.277V222.616L187.62 222.549H182.281L182.346 222.619L182.348 222.617Z" fill="black"/>
<path d="M112.801 105.145V110.285H107.715V105.213C109.438 105.213 111.152 105.213 112.869 105.213L112.801 105.145Z" fill="black"/>
<path d="M144.906 195.705V200.85H134.551V195.773C138.037 195.773 141.506 195.773 144.974 195.773L144.906 195.705Z" fill="black"/>
<path d="M128.609 212.071V206.734H134.227V212.071H128.609Z" fill="black"/>
<path d="M128.677 206.801H123.34C123.34 204.861 123.34 202.924 123.34 200.984H128.677V206.801Z" fill="black"/>
<path d="M107.517 158.348V163.612H123.404V169.428H97.2109V163.74H102.252V158.342C104.03 158.367 105.808 158.392 107.585 158.418L107.517 158.35V158.348Z" fill="black"/>
<path d="M96.9805 153.07H102.319V158.409H96.9805V153.07Z" fill="black"/>
<path d="M134.359 153.07H150.24V158.407H134.359V153.07Z" fill="black"/>
<path d="M123.336 163.676V158.338H128.475V163.676H123.336Z" fill="black"/>
<path d="M123.405 158.407H118.266V153.07H123.405V158.407Z" fill="black"/>
<path d="M160.855 200.889V195.918H165.87V200.889H160.855Z" fill="black"/>
<path d="M187.438 126.394H171.754V110.674H187.438V126.394Z" fill="black"/>
<path d="M75.6055 126.343V110.635H91.3311V126.343H75.6055Z" fill="black"/>
<path d="M91.3292 206.695V222.421H75.6289V206.695H91.3292Z" fill="black"/>
<path d="M107.584 158.416V153.275H112.669V158.348C110.947 158.348 109.232 158.348 107.516 158.348L107.584 158.416Z" fill="black"/>
<path d="M123.336 137.258H128.675V142.596H123.336V137.258Z" fill="black"/>
<path d="M118.066 137.325V131.986H123.405V137.325H118.066Z" fill="black"/>
</g>
<path d="M81.608 293.184C81.608 298.368 84.968 303.504 91.688 305.664L89 309.696C84.248 308.16 80.888 304.992 79.016 301.056C77.144 305.376 73.64 308.784 68.744 310.464L65.96 306.432C72.776 304.224 76.328 298.704 76.328 293.184V292.608H67.4V288.48H90.44V292.608H81.608V293.184ZM71.624 317.472V313.248H99.848V328.128H94.568V317.472H71.624ZM94.568 311.328V285.792H99.848V296.352H105.8V300.768H99.848V311.328H94.568ZM140.564 285.792V302.4H146.9V306.72H140.564V328.032H135.38V285.792H140.564ZM107.156 316.512C117.524 311.328 123.092 304.128 124.1 294.528H109.46V290.208H129.428C129.38 302.64 124.196 313.584 110.132 320.544L107.156 316.512ZM168.91 285.312V328.8H163.342V285.312H168.91ZM220.564 305.088V309.216H207.988V318.912H224.884V323.136H186.196V318.912H202.9V309.216H190.9V288.96H220.18V293.088H196.084V305.088H220.564ZM263.969 285.792V328.128H258.977V306.72H254.561V326.112H249.665V286.56H254.561V302.4H258.977V285.792H263.969ZM226.433 315.84C232.769 312.288 235.265 304.896 235.265 296.64V294.624H227.777V290.4H247.265V294.624H240.353V296.64C240.353 304.176 242.849 311.088 249.185 314.4L246.113 318.336C242.081 316.176 239.441 312.432 237.905 307.872C236.465 313.104 233.825 317.376 229.697 319.872L226.433 315.84ZM303.437 285.888V316.416H298.253V285.888H303.437ZM268.973 299.232C268.925 293.04 273.917 288.624 280.397 288.672C286.781 288.624 291.773 293.04 291.725 299.232C291.773 305.472 286.781 309.84 280.397 309.792C273.917 309.84 268.925 305.472 268.973 299.232ZM274.061 299.232C274.013 302.976 276.749 305.28 280.397 305.28C283.901 305.28 286.637 302.976 286.637 299.232C286.637 295.536 283.901 293.184 280.397 293.184C276.749 293.184 274.013 295.536 274.061 299.232ZM275.405 327.36V313.344H280.685V323.136H304.589V327.36H275.405ZM355.399 285.888V309.888H350.215V285.888H355.399ZM320.935 297.984C320.887 291.984 325.783 287.856 332.359 287.904C338.839 287.856 343.735 291.984 343.687 297.984C343.735 303.84 338.839 308.016 332.359 308.064C325.783 308.016 320.887 303.84 320.935 297.984ZM326.023 297.984C325.975 301.392 328.615 303.648 332.359 303.648C335.959 303.648 338.599 301.392 338.599 297.984C338.599 294.48 335.959 292.272 332.359 292.32C328.615 292.272 325.975 294.48 326.023 297.984ZM327.271 327.648V311.904H355.399V327.648H327.271ZM332.455 323.424H350.311V316.032H332.455V323.424ZM399.763 307.68V311.808H361.171V307.68H399.763ZM365.107 295.776C365.155 290.4 371.155 287.136 380.467 287.136C389.635 287.136 395.635 290.4 395.635 295.776C395.635 301.104 389.635 304.416 380.467 304.416C371.155 304.416 365.155 301.104 365.107 295.776ZM365.875 327.36V314.976H371.155V323.136H395.347V327.36H365.875ZM370.579 295.776C370.531 298.608 374.227 300.144 380.467 300.192C386.563 300.144 390.307 298.608 390.259 295.776C390.307 292.944 386.563 291.312 380.467 291.264C374.227 291.312 370.531 292.944 370.579 295.776ZM437.6 285.792V310.944H432.416V300.672H425.216V296.352H432.416V285.792H437.6ZM401.984 306.72C408.8 304.416 412.4 298.704 412.448 293.088V292.8H403.616V288.576H426.464V292.8H417.728V293.088C417.728 298.224 421.136 303.408 427.712 305.568L425.024 309.696C420.32 308.16 417.008 304.896 415.184 300.96C413.312 305.424 409.808 309.072 404.768 310.848L401.984 306.72ZM408.896 320.064C408.848 315.024 414.368 312.048 423.296 312C432.272 312.048 437.744 315.024 437.792 320.064C437.744 325.2 432.272 328.176 423.296 328.224C414.368 328.176 408.848 325.2 408.896 320.064ZM414.08 320.064C414.032 322.752 417.392 324.144 423.296 324.096C429.2 324.144 432.56 322.752 432.608 320.064C432.56 317.472 429.2 316.032 423.296 316.032C417.392 316.032 414.032 317.472 414.08 320.064ZM469.306 293.472C469.306 298.608 472.666 303.504 479.29 305.568L476.794 309.6C472.042 308.112 468.682 305.088 466.81 301.296C464.89 305.76 461.338 309.264 456.25 310.944L453.658 306.816C460.474 304.608 464.026 299.136 464.026 293.472V292.992H455.098V288.768H478.138V292.992H469.306V293.472ZM459.418 320.064C459.418 314.976 464.89 312 473.722 312C482.554 312 487.93 314.976 487.93 320.064C487.93 325.104 482.554 328.128 473.722 328.128C464.89 328.128 459.418 325.104 459.418 320.064ZM464.602 320.064C464.602 322.656 467.914 324.048 473.722 324C479.53 324.048 482.794 322.656 482.842 320.064C482.794 317.472 479.53 316.08 473.722 316.128C467.914 316.08 464.602 317.472 464.602 320.064ZM482.266 311.04V285.792H487.546V295.968H493.498V300.288H487.546V311.04H482.266ZM531.622 285.792V328.128H526.63V285.792H531.622ZM495.526 304.128C495.526 294.816 499.126 289.008 504.646 289.056C508.246 289.008 511.03 291.36 512.614 295.488H518.182V286.56H523.078V326.112H518.182V312.768H512.614C511.078 316.944 508.246 319.296 504.646 319.296C499.126 319.296 495.526 313.488 495.526 304.128ZM500.326 304.128C500.278 310.752 501.91 314.304 504.646 314.304C507.478 314.304 509.206 310.752 509.254 304.128C509.206 297.504 507.478 293.904 504.646 293.952C501.91 293.904 500.278 297.504 500.326 304.128ZM513.67 299.712C513.862 301.056 513.958 302.544 513.958 304.128C513.958 305.664 513.862 307.104 513.67 308.448H518.182V299.712H513.67ZM571.666 285.888V317.856H566.386V314.208H558.13V310.56H566.386V285.888H571.666ZM535.954 304.896C543.73 304.848 554.242 304.752 563.218 303.648L563.506 307.392C560.05 307.968 556.402 308.352 552.85 308.592V316.704H547.666V308.88C543.682 309.024 539.89 309.024 536.53 309.024L535.954 304.896ZM539.122 294.912C539.17 290.4 543.442 287.376 549.778 287.424C555.922 287.376 560.242 290.4 560.242 294.912C560.242 299.424 555.922 302.352 549.778 302.304C543.49 302.352 539.17 299.424 539.122 294.912ZM541.522 327.36V314.784H546.802V323.136H572.626V327.36H541.522ZM544.114 294.912C544.066 297.216 546.37 298.512 549.778 298.56C552.994 298.512 555.298 297.216 555.346 294.912C555.298 292.608 552.994 291.216 549.778 291.264C546.37 291.216 544.066 292.608 544.114 294.912ZM101.768 352.792V395.128H96.488V352.792H101.768ZM66.728 383.512C77.768 378.232 82.904 371.08 83.864 361.432H68.84V357.304H89.192C89.144 369.928 84.248 380.632 69.416 387.64L66.728 383.512ZM133.94 356.152V359.992H108.884V356.152H118.772V352.504H124.052V356.152H133.94ZM107.636 376.312C110.996 376.312 114.788 376.312 118.772 376.216V373.72C113.972 373.096 110.996 370.888 110.996 367.576C110.996 363.688 115.124 361.192 121.46 361.24C127.652 361.192 131.876 363.688 131.924 367.576C131.876 370.888 128.804 373.144 124.052 373.72V376.024C127.604 375.832 131.156 375.592 134.516 375.16L134.9 378.712C125.828 380.2 115.844 380.344 108.308 380.344L107.636 376.312ZM113.588 387.16V383.128H142.772V395.128H137.492V387.16H113.588ZM115.988 367.576C115.988 369.352 118.148 370.36 121.46 370.36C124.676 370.36 126.884 369.352 126.932 367.576C126.884 365.752 124.676 364.744 121.46 364.696C118.148 364.744 115.988 365.752 115.988 367.576ZM137.492 381.4V352.888H142.772V381.4H137.492ZM168.91 352.312V395.8H163.342V352.312H168.91ZM202.804 375.544V382.36C206.5 382.168 210.244 381.832 213.748 381.304L214.132 385.144C204.628 386.92 194.5 386.968 186.964 386.968L186.388 382.744C189.652 382.744 193.54 382.696 197.62 382.552V375.544H202.804ZM187.348 372.856C193.732 371.176 197.236 366.952 197.524 362.2H188.596V357.976H197.62V353.176H202.804V357.976H212.02V362.2H202.9C203.188 366.712 206.836 370.84 213.172 372.472L210.772 376.504C205.78 375.16 202.18 372.232 200.26 368.44C198.436 372.424 194.884 375.496 189.844 376.888L187.348 372.856ZM216.244 395.224V352.792H221.428V395.224H216.244ZM265.793 374.68V378.808H227.201V374.68H265.793ZM231.137 362.776C231.185 357.4 237.185 354.136 246.497 354.136C255.665 354.136 261.665 357.4 261.665 362.776C261.665 368.104 255.665 371.416 246.497 371.416C237.185 371.416 231.185 368.104 231.137 362.776ZM231.905 394.36V381.976H237.185V390.136H261.377V394.36H231.905ZM236.609 362.776C236.561 365.608 240.257 367.144 246.497 367.192C252.593 367.144 256.337 365.608 256.289 362.776C256.337 359.944 252.593 358.312 246.497 358.264C240.257 358.312 236.561 359.944 236.609 362.776ZM306.797 374.296V378.424H268.205V374.296H284.813V369.784H289.997V374.296H306.797ZM270.029 367.864C278.765 367.24 283.757 364.36 284.429 360.856H271.949V356.728H284.813V352.888H289.997V356.728H302.957V360.856H290.381C291.053 364.36 296.093 367.24 304.877 367.864L303.245 371.8C295.709 371.224 290.093 368.872 287.453 365.176C284.765 368.872 279.149 371.224 271.565 371.8L270.029 367.864ZM272.621 388.024C272.669 383.368 278.141 380.824 287.405 380.824C296.669 380.824 302.093 383.368 302.093 388.024C302.093 392.584 296.669 395.128 287.405 395.128C278.141 395.128 272.669 392.584 272.621 388.024ZM277.997 388.024C277.949 390.136 281.213 391.24 287.405 391.192C293.549 391.24 296.861 390.136 296.909 388.024C296.861 385.816 293.549 384.712 287.405 384.76C281.213 384.712 277.949 385.816 277.997 388.024ZM90.152 424.632V428.856H66.44V424.632H75.944V420.408H81.128V424.632H90.152ZM68.744 437.976C68.696 433.416 72.728 430.344 78.536 430.296C84.296 430.344 88.424 433.416 88.424 437.976C88.424 442.584 84.296 445.656 78.536 445.656C72.728 445.656 68.696 442.584 68.744 437.976ZM73.544 437.976C73.544 440.376 75.512 441.816 78.536 441.816C81.512 441.816 83.576 440.376 83.624 437.976C83.576 435.672 81.512 434.232 78.536 434.232C75.512 434.232 73.544 435.672 73.544 437.976ZM73.64 462.648V447.576H78.92V451.224H96.68V447.576H101.864V462.648H73.64ZM78.92 458.616H96.68V455.064H78.92V458.616ZM90.344 442.68V438.456H96.68V434.328H90.44V430.104H96.68V420.792H101.864V445.944H96.68V442.68H90.344ZM127.604 423.288V436.056H114.26V441.336C121.076 441.288 124.964 441.096 129.524 440.28L130.004 444.504C124.964 445.32 120.548 445.464 112.244 445.464H109.076V432.216H122.42V427.416H109.076V423.288H127.604ZM113.972 453.144V448.92H142.868V463.224H137.684V453.144H113.972ZM130.196 439.896V435.768H137.684V430.968H130.196V426.84H137.684V420.888H142.868V446.904H137.684V439.896H130.196ZM168.91 420.312V463.8H163.342V420.312H168.91ZM205.492 423.192C214.516 423.192 221.236 427.752 221.236 434.616C221.236 441 215.716 445.224 207.988 445.992V453.72H224.884V458.04H186.196V453.72H202.9V445.992C195.172 445.176 189.7 441 189.748 434.616C189.7 427.752 196.42 423.192 205.492 423.192ZM194.836 434.616C194.788 439.224 199.252 441.912 205.492 441.912C211.684 441.912 216.1 439.224 216.148 434.616C216.1 430.2 211.684 427.368 205.492 427.416C199.252 427.368 194.788 430.2 194.836 434.616ZM240.449 431.928C240.401 438.744 242.753 445.896 248.513 449.496L245.633 453.528C241.793 451.224 239.345 447.24 237.953 442.584C236.417 447.672 233.681 451.992 229.697 454.392L226.529 450.552C232.625 446.808 235.361 439.368 235.361 432.12V424.536H240.449V431.928ZM244.001 439.704V435.384H250.049V421.56H254.945V461.112H250.049V439.704H244.001ZM258.689 463.128V420.792H263.681V463.128H258.689ZM284.237 429.432C284.237 434.712 287.837 439.848 294.605 441.912L291.917 446.04C287.117 444.456 283.613 441.288 281.693 437.256C279.821 441.624 276.221 445.128 271.181 446.808L268.493 442.68C275.309 440.472 278.957 435 278.957 429.432V428.184H269.837V424.056H293.165V428.184H284.237V429.432ZM275.405 462.36V448.728H280.685V458.136H304.589V462.36H275.405ZM298.253 451.608V420.888H303.437V451.608H298.253Z" fill="black"/>
<path d="M81.5938 535.438C81.5938 540.641 84.9688 545.516 91.5781 547.531L89.0938 551.609C84.3359 550.133 80.9609 547.109 79.1094 543.266C77.2344 547.719 73.6484 551.258 68.5625 552.969L65.9375 548.844C72.7812 546.594 76.3438 541.109 76.3438 535.484V534.969H67.3906V530.75H90.4062V534.969H81.5938V535.438ZM99.8281 527.797V537.969H105.734V542.234H99.8281V553.062H94.625V527.797H99.8281ZM86.0469 554C94.8125 554 100.203 556.953 100.25 562.016C100.203 567.125 94.8125 570.125 86.0469 570.125C77.1875 570.125 71.7031 567.125 71.7031 562.016C71.7031 556.953 77.1875 554 86.0469 554ZM86.0469 558.078C80.2344 558.078 76.9062 559.438 76.9062 562.016C76.9062 564.641 80.2344 566.047 86.0469 566.047C91.8594 566.047 95.0938 564.641 95.0938 562.016C95.0938 559.438 91.8594 558.078 86.0469 558.078ZM146.129 560.703V564.922H107.411V560.703H124.004V550.906H129.161V560.703H146.129ZM129.301 533.469C129.301 539.891 135.723 546.219 144.629 547.625L142.379 551.938C135.208 550.578 129.348 546.477 126.536 540.922C123.723 546.453 117.911 550.625 110.786 551.938L108.536 547.625C117.395 546.219 123.723 539.844 123.77 533.469V530.375H129.301V533.469ZM168.841 527.281V570.781H163.263V527.281H168.841ZM201.209 532.062V566H195.069V538.016H194.881L186.959 543.078V537.5L195.35 532.062H201.209ZM221.495 566.469C213.339 566.469 208.464 560.141 208.464 549.031C208.464 537.969 213.339 531.594 221.495 531.594C229.604 531.594 234.526 537.969 234.526 549.031C234.526 560.141 229.651 566.469 221.495 566.469ZM221.495 561.359C225.761 561.359 228.386 557.188 228.386 549.031C228.386 540.922 225.714 536.656 221.495 536.656C217.276 536.656 214.604 540.922 214.604 549.031C214.604 557.188 217.229 561.359 221.495 561.359ZM251.484 530.75C258.187 530.703 263.109 534.969 263.156 540.969C263.109 547.016 258.187 551.234 251.484 551.234C244.827 551.234 239.859 547.016 239.859 540.969C239.859 534.969 244.827 530.703 251.484 530.75ZM251.484 535.25C247.781 535.25 245.015 537.453 245.015 540.969C245.015 544.531 247.781 546.688 251.484 546.688C255.234 546.688 258.046 544.531 258.046 540.969C258.046 537.453 255.234 535.25 251.484 535.25ZM273.046 527.797V570.219H267.843V527.797H273.046ZM237.937 557.094C245.577 557.094 256.171 557 265.312 555.688L265.734 559.484C256.218 561.312 246.046 561.359 238.593 561.359L237.937 557.094ZM297.117 551.094V566H291.117V540.547H296.836V544.859H297.164C298.336 542 300.914 540.219 304.711 540.219C310.008 540.219 313.477 543.688 313.43 549.781V566H307.477V550.719C307.477 547.297 305.649 545.281 302.508 545.281C299.321 545.281 297.117 547.391 297.117 551.094ZM339.2 530.047C339.2 534.828 345.059 539.703 353.778 540.734L351.856 544.859C344.848 543.875 339.27 540.664 336.575 536.281C333.833 540.711 328.231 543.875 321.2 544.859L319.231 540.734C327.997 539.703 333.809 534.875 333.856 530.047V528.5H339.2V530.047ZM355.841 547.531V551.656H317.216V547.531H355.841ZM336.481 554.938C345.622 554.891 351.106 557.609 351.153 562.531C351.106 567.406 345.622 570.172 336.481 570.172C327.247 570.172 321.716 567.406 321.716 562.531C321.716 557.609 327.247 554.891 336.481 554.938ZM336.481 558.875C330.294 558.875 326.966 560.094 327.012 562.531C326.966 564.969 330.294 566.141 336.481 566.141C342.528 566.141 345.903 564.969 345.95 562.531C345.903 560.094 342.528 558.875 336.481 558.875ZM360.751 553.062C360.751 544.25 363.376 536.891 367.783 530.609H373.408C370.173 535.25 366.939 544.672 366.939 553.062C366.939 561.453 370.173 570.875 373.408 575.562H367.783C363.376 569.234 360.751 561.922 360.751 553.062ZM391.349 537.969C391.349 545.844 395.099 553.578 401.849 556.531L398.709 560.703C393.904 558.359 390.529 553.859 388.724 548.328C386.873 554.164 383.427 559.016 378.552 561.5L375.271 557.281C382.162 554.047 386.006 545.891 386.052 537.969V531.219H391.349V537.969ZM411.224 527.797V570.219H406.068V545.703H397.162V541.484H406.068V527.797H411.224ZM435.963 528.219C445.619 528.219 451.198 530.797 451.244 535.484C451.198 540.219 445.619 542.75 435.963 542.797C426.307 542.75 420.682 540.219 420.682 535.484C420.682 530.797 426.307 528.219 435.963 528.219ZM435.963 532.109C429.494 532.109 426.119 533.281 426.166 535.484C426.119 537.828 429.494 538.906 435.963 538.953C442.526 538.906 445.854 537.828 445.854 535.484C445.854 533.281 442.526 532.109 435.963 532.109ZM455.323 545V549.078H438.541V552.312H450.494V562.672H426.401V565.812H451.666V569.797H421.291V558.969H445.385V556.156H421.244V552.312H433.338V549.078H416.698V545H455.323ZM484.269 537.969C484.269 545.844 488.019 553.578 494.769 556.531L491.628 560.703C486.823 558.359 483.448 553.859 481.644 548.328C479.792 554.164 476.347 559.016 471.472 561.5L468.191 557.281C475.081 554.047 478.925 545.891 478.972 537.969V531.219H484.269V537.969ZM504.144 527.797V570.219H498.987V545.703H490.081V541.484H498.987V527.797H504.144ZM546.086 527.797V570.172H541.117V548.562H536.336V568.016H531.554V528.594H536.336V544.391H541.117V527.797H546.086ZM526.773 532.812V537.031H516.179V555.875C520.797 555.828 524.593 555.594 528.883 554.797L529.258 559.062C524.148 560.094 519.695 560.234 513.789 560.281H510.929V532.812H526.773ZM589.293 548.984V553.156H572.934V560.938H567.777V553.156H550.574V548.984H589.293ZM584.324 529.719V545.047H555.496V529.719H584.324ZM560.559 533.797V540.969H579.168V533.797H560.559ZM585.027 565.109V569.328H555.262V557.047H560.465V565.109H585.027ZM625.516 530.375V534.172C625.516 538.133 625.516 542.469 624.391 548.469H630.251V552.688H613.422V570.219H608.172V552.688H591.626V548.469H619.094C620.266 542.703 620.313 538.391 620.313 534.594H596.172V530.375H625.516ZM662.806 557C672.134 557 677.431 559.344 677.478 563.609C677.431 567.875 672.134 570.125 662.806 570.125C653.338 570.125 648.041 567.875 648.041 563.609C648.041 559.344 653.338 557 662.806 557ZM662.806 560.844C656.525 560.844 653.384 561.781 653.384 563.609C653.384 565.438 656.525 566.328 662.806 566.281C669.041 566.328 672.181 565.438 672.228 563.609C672.181 561.781 669.041 560.844 662.806 560.844ZM680.056 531.031V535.016H645.463V531.031H660.228V527.375H665.431V531.031H680.056ZM662.806 536.328C671.853 536.328 676.916 538.391 676.916 542.422C676.916 545.961 672.838 548.023 665.431 548.375V550.953H682.166V555.031H643.541V550.953H660.228V548.375C652.869 548.023 648.744 545.961 648.744 542.422C648.744 538.391 653.853 536.328 662.806 536.328ZM662.806 539.891C657.181 539.891 654.322 540.688 654.322 542.422C654.322 544.062 657.181 544.859 662.806 544.906C668.478 544.859 671.338 544.062 671.338 542.422C671.338 540.688 668.478 539.891 662.806 539.891ZM720.029 527.844V558.922H714.826V548.422H704.748C702.709 550.695 699.709 552.078 696.311 552.078C689.936 552.078 685.107 547.484 685.107 541.25C685.107 534.922 689.936 530.375 696.311 530.375C699.686 530.375 702.662 531.734 704.701 533.984H714.826V527.844H720.029ZM721.107 565.109V569.328H692.232V555.734H697.436V565.109H721.107ZM696.311 535.016C692.654 535.016 690.076 537.453 690.076 541.25C690.076 545 692.654 547.438 696.311 547.438C699.779 547.438 702.404 545 702.451 541.25C702.404 537.453 699.779 535.016 696.311 535.016ZM706.998 538.203C707.256 539.164 707.42 540.172 707.42 541.25C707.42 542.281 707.279 543.266 707.045 544.203H714.826V538.203H706.998ZM760.846 527.797V549.266H755.596V527.797H760.846ZM748.049 529.531C748.003 540.875 741.159 547.344 728.034 550.109L726.206 545.891C736.729 543.828 741.651 539.422 742.284 533.75H728.456V529.531H748.049ZM760.846 551V562.062H738.065V565.672H762.112V569.75H732.815V558.266H755.596V555.078H732.721V551H760.846ZM791.574 566.469C784.964 566.422 778.308 562.484 778.355 549.969C778.355 538.344 783.652 531.594 791.949 531.594C798.511 531.594 803.011 535.719 803.761 541.203H797.714C797.105 538.625 795.042 536.891 791.949 536.891C787.027 536.891 784.261 541.25 784.261 548.375H784.589C786.324 545.469 789.605 543.734 793.308 543.734C799.402 543.734 804.089 548.328 804.089 554.75C804.089 561.5 799.074 566.516 791.574 566.469ZM791.574 561.547C795.371 561.547 798.183 558.594 798.183 554.891C798.183 551.281 795.417 548.375 791.667 548.375C787.871 548.375 784.964 551.375 784.917 554.938C784.964 558.5 787.73 561.547 791.574 561.547ZM808.766 566V561.594L820.766 550.016C824.188 546.594 825.969 544.578 825.969 541.719C825.969 538.578 823.484 536.562 820.156 536.562C816.641 536.562 814.391 538.766 814.438 542.188H808.625C808.578 535.766 813.406 531.594 820.203 531.594C827.141 531.594 831.828 535.719 831.828 541.438C831.828 545.281 829.953 548.375 823.297 554.656L817.25 560.656V560.891H832.344V566H808.766ZM861.993 530.469L851.071 571.109H845.821L856.79 530.469H861.993ZM875.752 566V561.594L887.752 550.016C891.174 546.594 892.955 544.578 892.955 541.719C892.955 538.578 890.471 536.562 887.143 536.562C883.627 536.562 881.377 538.766 881.424 542.188H875.611C875.564 535.766 880.393 531.594 887.189 531.594C894.127 531.594 898.814 535.719 898.814 541.438C898.814 545.281 896.939 548.375 890.283 554.656L884.236 560.656V560.891H899.33V566H875.752ZM939.537 533.469V537.688H904.522V533.469H919.475V528.359H924.631V533.469H939.537ZM941.506 561.406V565.625H902.787V561.406H919.475V556.203C912.139 555.617 907.709 552.688 907.756 548C907.709 542.891 913.194 539.844 922.053 539.844C930.772 539.844 936.303 542.891 936.303 548C936.303 552.664 931.85 555.594 924.631 556.156V561.406H941.506ZM922.053 543.922C916.287 543.969 913.053 545.328 913.1 548C913.053 550.719 916.287 552.078 922.053 552.125C927.725 552.078 930.959 550.719 930.959 548C930.959 545.328 927.725 543.969 922.053 543.922ZM956.401 553.062C956.401 561.922 953.776 569.234 949.37 575.562H943.745C946.979 570.875 950.214 561.453 950.214 553.062C950.214 544.672 946.979 535.25 943.745 530.609H949.37C953.776 536.891 956.401 544.25 956.401 553.062ZM78.4062 596.156C84.8281 596.156 89.6094 600.141 89.6562 605.719C89.6094 611.344 84.8281 615.281 78.4062 615.281C71.9375 615.281 67.1562 611.344 67.1562 605.719C67.1562 600.141 71.9375 596.156 78.4062 596.156ZM78.4062 600.469C74.8438 600.469 72.2188 602.484 72.2188 605.719C72.2188 609 74.8438 611.062 78.4062 611.062C81.9688 611.062 84.5938 609 84.5938 605.719C84.5938 602.484 81.9688 600.469 78.4062 600.469ZM101.703 594.797V616.219H96.4531V594.797H101.703ZM101.703 618.047V629.109H78.7812V632.531H102.969V636.656H73.6719V625.266H96.5V622.125H73.5781V618.047H101.703ZM123.442 604.969C123.395 612.75 127.473 620.531 134.364 623.484L131.27 627.656C126.395 625.406 122.809 620.906 120.864 615.375C118.918 621.352 115.286 626.227 110.129 628.641L106.942 624.281C114.02 621.234 118.145 613.125 118.145 604.969V598.219H123.442V604.969ZM142.661 594.797V637.219H137.411V594.797H142.661ZM168.841 594.281V637.781H163.263V594.281H168.841ZM187.428 633V628.594L199.428 617.016C202.85 613.594 204.631 611.578 204.631 608.719C204.631 605.578 202.147 603.562 198.819 603.562C195.303 603.562 193.053 605.766 193.1 609.188H187.287C187.241 602.766 192.069 598.594 198.866 598.594C205.803 598.594 210.491 602.719 210.491 608.438C210.491 612.281 208.616 615.375 201.959 621.656L195.912 627.656V627.891H211.006V633H187.428ZM228.386 633.469C220.229 633.469 215.354 627.141 215.354 616.031C215.354 604.969 220.229 598.594 228.386 598.594C236.495 598.594 241.417 604.969 241.417 616.031C241.417 627.141 236.542 633.469 228.386 633.469ZM228.386 628.359C232.651 628.359 235.276 624.188 235.276 616.031C235.276 607.922 232.604 603.656 228.386 603.656C224.167 603.656 221.495 607.922 221.495 616.031C221.495 624.188 224.12 628.359 228.386 628.359ZM246.046 633V628.594L258.046 617.016C261.468 613.594 263.249 611.578 263.249 608.719C263.249 605.578 260.765 603.562 257.437 603.562C253.921 603.562 251.671 605.766 251.718 609.188H245.906C245.859 602.766 250.687 598.594 257.484 598.594C264.421 598.594 269.109 602.719 269.109 608.438C269.109 612.281 267.234 615.375 260.577 621.656L254.531 627.656V627.891H269.624V633H246.046ZM273.129 626.672V621.797L287.801 599.062H295.394V621.656H299.848V626.672H295.394V633H289.582V626.672H273.129ZM279.363 621.656H289.676V606H289.301L279.363 621.422V621.656ZM307.008 633.375C304.992 633.375 303.352 631.734 303.352 629.719C303.352 627.75 304.992 626.109 307.008 626.109C308.93 626.109 310.617 627.75 310.617 629.719C310.617 631.734 308.93 633.375 307.008 633.375ZM338.204 633.469C330.048 633.469 325.173 627.141 325.173 616.031C325.173 604.969 330.048 598.594 338.204 598.594C346.314 598.594 351.236 604.969 351.236 616.031C351.236 627.141 346.361 633.469 338.204 633.469ZM338.204 628.359C342.47 628.359 345.095 624.188 345.095 616.031C345.095 607.922 342.423 603.656 338.204 603.656C333.986 603.656 331.314 607.922 331.314 616.031C331.314 624.188 333.939 628.359 338.204 628.359ZM369.646 599.062V633H363.506V605.016H363.318L355.396 610.078V604.5L363.787 599.062H369.646ZM379.291 633.375C377.276 633.375 375.635 631.734 375.635 629.719C375.635 627.75 377.276 626.109 379.291 626.109C381.213 626.109 382.901 627.75 382.901 629.719C382.901 631.734 381.213 633.375 379.291 633.375ZM411.753 599.062V633H405.612V605.016H405.425L397.503 610.078V604.5L405.894 599.062H411.753ZM432.226 633.469C425.617 633.422 418.961 629.484 419.008 616.969C419.008 605.344 424.304 598.594 432.601 598.594C439.164 598.594 443.664 602.719 444.414 608.203H438.367C437.758 605.625 435.695 603.891 432.601 603.891C427.679 603.891 424.914 608.25 424.914 615.375H425.242C426.976 612.469 430.258 610.734 433.961 610.734C440.054 610.734 444.742 615.328 444.742 621.75C444.742 628.5 439.726 633.516 432.226 633.469ZM432.226 628.547C436.023 628.547 438.836 625.594 438.836 621.891C438.836 618.281 436.07 615.375 432.32 615.375C428.523 615.375 425.617 618.375 425.57 621.938C425.617 625.5 428.383 628.547 432.226 628.547ZM451.715 633.375C449.699 633.375 448.059 631.734 448.059 629.719C448.059 627.75 449.699 626.109 451.715 626.109C453.637 626.109 455.324 627.75 455.324 629.719C455.324 631.734 453.637 633.375 451.715 633.375ZM461.688 620.062C461.688 611.25 464.313 603.891 468.719 597.609H474.344C471.11 602.25 467.876 611.672 467.876 620.062C467.876 628.453 471.11 637.875 474.344 642.562H468.719C464.313 636.234 461.688 628.922 461.688 620.062ZM510.146 594.797V612.281H516.099V616.641H510.146V637.172H504.896V594.797H510.146ZM476.114 625.406C479.325 625.406 483.052 625.406 486.943 625.312V621.328C482.325 620.555 479.302 617.648 479.349 613.688C479.302 608.906 483.521 605.719 489.614 605.719C495.614 605.719 499.88 608.906 499.927 613.688C499.88 617.672 496.81 620.578 492.193 621.328V625.125C495.755 624.938 499.318 624.656 502.646 624.188L502.974 627.984C493.88 629.625 484.083 629.719 476.864 629.719L476.114 625.406ZM502.177 599.672V603.797H476.911V599.672H486.943V594.984H492.193V599.672H502.177ZM489.614 609.703C486.38 609.75 484.271 611.203 484.271 613.688C484.271 616.125 486.38 617.578 489.614 617.531C492.802 617.578 494.911 616.125 494.911 613.688C494.911 611.203 492.802 609.75 489.614 609.703ZM530.244 620.062C530.244 628.922 527.619 636.234 523.212 642.562H517.587C520.822 637.875 524.056 628.453 524.056 620.062C524.056 611.672 520.822 602.25 517.587 597.609H523.212C527.619 603.891 530.244 611.25 530.244 620.062ZM561.206 599.062V633H555.065V605.016H554.878L546.956 610.078V604.5L555.346 599.062H561.206ZM581.304 633.469C573.757 633.469 568.413 629.438 568.413 623.906C568.413 619.594 571.601 616.078 575.679 615.422V615.234C572.116 614.484 569.679 611.391 569.679 607.688C569.679 602.438 574.601 598.594 581.304 598.594C587.96 598.594 592.882 602.438 592.882 607.688C592.882 611.391 590.397 614.484 586.882 615.234V615.422C590.96 616.078 594.194 619.594 594.194 623.906C594.194 629.438 588.804 633.469 581.304 633.469ZM581.304 628.641C585.288 628.641 587.913 626.484 587.913 623.344C587.913 620.156 585.101 617.812 581.304 617.812C577.46 617.812 574.647 620.156 574.694 623.344C574.647 626.484 577.272 628.641 581.304 628.641ZM581.304 613.266C584.585 613.266 586.929 611.203 586.929 608.25C586.929 605.391 584.632 603.375 581.304 603.375C577.929 603.375 575.632 605.344 575.632 608.25C575.632 611.203 577.976 613.266 581.304 613.266ZM602.527 633.375C600.511 633.375 598.871 631.734 598.871 629.719C598.871 627.75 600.511 626.109 602.527 626.109C604.449 626.109 606.136 627.75 606.136 629.719C606.136 631.734 604.449 633.375 602.527 633.375ZM602.527 615.188C600.511 615.188 598.871 613.547 598.871 611.531C598.871 609.562 600.511 607.922 602.527 607.922C604.449 607.922 606.136 609.562 606.136 611.531C606.136 613.547 604.449 615.188 602.527 615.188ZM623.891 633.469C615.734 633.469 610.859 627.141 610.859 616.031C610.859 604.969 615.734 598.594 623.891 598.594C632 598.594 636.922 604.969 636.922 616.031C636.922 627.141 632.047 633.469 623.891 633.469ZM623.891 628.359C628.156 628.359 630.781 624.188 630.781 616.031C630.781 607.922 628.109 603.656 623.891 603.656C619.672 603.656 617 607.922 617 616.031C617 624.188 619.625 628.359 623.891 628.359ZM654.067 633.469C645.911 633.469 641.036 627.141 641.036 616.031C641.036 604.969 645.911 598.594 654.067 598.594C662.176 598.594 667.098 604.969 667.098 616.031C667.098 627.141 662.223 633.469 654.067 633.469ZM654.067 628.359C658.333 628.359 660.958 624.188 660.958 616.031C660.958 607.922 658.286 603.656 654.067 603.656C649.848 603.656 647.176 607.922 647.176 616.031C647.176 624.188 649.801 628.359 654.067 628.359ZM687.196 616.406V621.328H671.915V616.406H687.196ZM691.357 633V628.594L703.357 617.016C706.779 613.594 708.56 611.578 708.56 608.719C708.56 605.578 706.076 603.562 702.747 603.562C699.232 603.562 696.982 605.766 697.029 609.188H691.216C691.169 602.766 695.997 598.594 702.794 598.594C709.732 598.594 714.419 602.719 714.419 608.438C714.419 612.281 712.544 615.375 705.888 621.656L699.841 627.656V627.891H714.935V633H691.357ZM732.314 633.469C724.158 633.469 719.283 627.141 719.283 616.031C719.283 604.969 724.158 598.594 732.314 598.594C740.424 598.594 745.346 604.969 745.346 616.031C745.346 627.141 740.471 633.469 732.314 633.469ZM732.314 628.359C736.58 628.359 739.205 624.188 739.205 616.031C739.205 607.922 736.533 603.656 732.314 603.656C728.096 603.656 725.424 607.922 725.424 616.031C725.424 624.188 728.049 628.359 732.314 628.359ZM753.725 633.375C751.709 633.375 750.069 631.734 750.069 629.719C750.069 627.75 751.709 626.109 753.725 626.109C755.647 626.109 757.334 627.75 757.334 629.719C757.334 631.734 755.647 633.375 753.725 633.375ZM753.725 615.188C751.709 615.188 750.069 613.547 750.069 611.531C750.069 609.562 751.709 607.922 753.725 607.922C755.647 607.922 757.334 609.562 757.334 611.531C757.334 613.547 755.647 615.188 753.725 615.188ZM775.089 633.469C766.932 633.469 762.057 627.141 762.057 616.031C762.057 604.969 766.932 598.594 775.089 598.594C783.198 598.594 788.12 604.969 788.12 616.031C788.12 627.141 783.245 633.469 775.089 633.469ZM775.089 628.359C779.354 628.359 781.979 624.188 781.979 616.031C781.979 607.922 779.307 603.656 775.089 603.656C770.87 603.656 768.198 607.922 768.198 616.031C768.198 624.188 770.823 628.359 775.089 628.359ZM805.265 633.469C797.109 633.469 792.234 627.141 792.234 616.031C792.234 604.969 797.109 598.594 805.265 598.594C813.374 598.594 818.296 604.969 818.296 616.031C818.296 627.141 813.421 633.469 805.265 633.469ZM805.265 628.359C809.531 628.359 812.156 624.188 812.156 616.031C812.156 607.922 809.484 603.656 805.265 603.656C801.046 603.656 798.374 607.922 798.374 616.031C798.374 624.188 800.999 628.359 805.265 628.359ZM105.125 694.703V699.062H66.4062V694.703H105.125ZM101.75 665.734V669.906H95.5625V683.406H101.609V687.531H69.7344V683.406H75.6875V669.906H69.5938V665.734H101.75ZM80.8906 683.406H90.4062V669.906H80.8906V683.406ZM146.129 694.938V699.25H107.411V694.938H124.098V688.047H112.004V674.172H136.379V668.922H111.911V664.703H141.536V678.297H117.208V683.781H142.52V688.047H129.254V694.938H146.129ZM176.306 662.688V687.344H171.337V676.656H166.04V672.438H171.337V662.688H176.306ZM161.493 670.891C161.493 675.438 164.024 680.031 169.415 682.188L166.79 686.172C163.04 684.719 160.509 682 159.056 678.719C157.509 682.398 154.813 685.422 150.806 687.062L148.087 682.984C153.759 680.734 156.431 675.719 156.431 670.891V669.203H149.306V665.031H168.196V669.203H161.493V670.891ZM184.649 661.797V687.625H179.681V661.797H184.649ZM184.649 689.312V704.172H179.446V693.484H155.634V689.312H184.649ZM223.872 684.016V688.141H194.154V665.125H223.497V669.344H199.451V674.453H222.513V678.531H199.451V684.016H223.872ZM228.138 694.75V699.016H189.419V694.75H228.138ZM264.163 664.281V668.5H248.975V672.438H262.944V676.516H248.975V680.688C256.897 680.664 261.725 680.523 267.303 679.609L267.819 683.688C261.725 684.766 256.428 684.859 247.288 684.812H243.678V664.281H264.163ZM276.631 661.844V687.016H271.381V661.844H276.631ZM276.631 688.891V703.656H248.506V688.891H276.631ZM253.663 692.922V699.438H271.522V692.922H253.663ZM302.765 661.281V704.781H297.187V661.281H302.765ZM331.336 664.891C337.711 664.891 342.305 670.703 342.352 679.844C342.305 689.078 337.711 694.844 331.336 694.844C324.914 694.844 320.274 689.078 320.321 679.844C320.274 670.703 324.914 664.891 331.336 664.891ZM331.336 669.578C327.774 669.578 325.336 673.375 325.336 679.844C325.336 686.359 327.774 690.156 331.336 690.156C334.946 690.156 337.336 686.359 337.336 679.844C337.336 673.375 334.946 669.578 331.336 669.578ZM353.133 661.797V678.062H359.649V682.469H353.133V704.172H347.93V661.797H353.133ZM394.138 661.797V677.922H400.653V682.328H394.138V704.172H388.934V661.797H394.138ZM367.606 665.266V675.859H377.591V665.266H382.794V694.234H362.45V665.266H367.606ZM367.606 689.969H377.591V679.938H367.606V689.969ZM423.704 665.453V669.719H408.986V677.266H422.954V681.391H408.986V690.109C415.501 690.062 420.587 689.828 426.517 688.844L426.986 693.062C420.47 694.094 414.798 694.328 407.204 694.328H403.689V665.453H423.704ZM435.142 661.797V678.203H441.658V682.562H435.142V704.172H429.939V661.797H435.142ZM459.916 700H453.401L465.354 666.062H472.854L484.854 700H478.338L475.526 691.609H462.729L459.916 700ZM464.369 686.688H473.885L469.244 673H468.963L464.369 686.688ZM488.405 700V666.062H501.389C508.749 666.062 512.405 669.812 512.405 674.875C512.405 679 509.78 681.297 506.452 682.094V682.422C510.061 682.609 513.717 685.609 513.717 690.766C513.717 696.062 509.921 700 502.139 700H488.405ZM501.202 694.891C505.655 694.891 507.53 692.969 507.53 690.297C507.53 687.25 505.139 684.906 501.342 684.906H494.499V694.891H501.202ZM500.639 680.5C503.874 680.5 506.311 678.625 506.311 675.625C506.311 673 504.436 671.125 500.78 671.125H494.499V680.5H500.639ZM516.706 671.172V666.062H543.753V671.172H533.3V700H527.206V671.172H516.706ZM575.277 695.266C570.918 695.266 567.59 691.844 567.59 685.656C567.59 679.375 571.059 676.094 575.277 676.094C578.324 676.094 579.824 677.922 580.434 679.234H580.668V676.516H585.215V689.031C585.262 690.625 585.918 691.375 587.184 691.375C589.574 691.375 591.121 688.609 591.121 684.438C591.168 676.281 585.402 670.938 576.871 670.938C568.152 670.938 562.574 677.266 562.574 685.656C562.574 694.75 567.449 700.469 576.731 700.422C580.059 700.422 582.543 700.141 585.215 699.438V703.75C582.731 704.453 579.824 704.875 576.731 704.875C564.965 704.875 558.121 697.375 558.121 685.656C558.074 674.547 565.856 666.484 576.871 666.484C587.934 666.484 595.621 674.031 595.621 684.297C595.621 691.422 592.012 695.5 586.762 695.5C583.645 695.5 581.301 694 580.856 691.891H580.621C580.012 693.203 578.465 695.266 575.277 695.266ZM576.684 690.953C579.356 691 580.762 688.891 580.762 685.656C580.762 682.422 579.356 680.359 576.684 680.359C574.106 680.359 572.652 682.562 572.699 685.656C572.652 688.75 574.152 690.953 576.684 690.953ZM599.079 692.828C599.079 687.109 603.813 685.422 608.547 685.141C610.305 685.023 613.962 684.812 615.063 684.766V682.75C615.063 680.219 613.422 678.766 610.469 678.766C607.797 678.766 606.157 679.984 605.688 681.812H599.922C600.344 677.5 604.235 674.219 610.61 674.219C615.438 674.219 621.016 676.188 621.016 682.984V700H615.297V696.484H615.11C613.985 698.641 611.594 700.516 607.61 700.516C602.735 700.516 599.079 697.844 599.079 692.828ZM604.844 692.781C604.844 694.984 606.626 696.109 609.157 696.109C612.766 696.109 615.11 693.719 615.11 690.859V688.75C614.008 688.82 610.68 689.055 609.485 689.125C606.626 689.359 604.844 690.531 604.844 692.781ZM626.161 700V674.547H631.974V678.766H632.255C633.146 675.859 635.63 674.172 638.536 674.172C639.193 674.172 640.13 674.219 640.693 674.312V679.844C640.177 679.656 638.911 679.469 637.927 679.469C634.599 679.469 632.161 681.766 632.161 685V700H626.161ZM657.884 674.547V679.141H652.869V692.359C652.869 694.797 654.088 695.312 655.588 695.312C656.291 695.312 657.463 695.266 658.213 695.219V700.094C657.509 700.234 656.338 700.328 654.838 700.328C650.338 700.328 646.869 698.125 646.916 693.344V679.141H643.259V674.547H646.916V668.453H652.869V674.547H657.884ZM665.701 700.375C663.686 700.375 662.045 698.734 662.045 696.719C662.045 694.75 663.686 693.109 665.701 693.109C667.623 693.109 669.311 694.75 669.311 696.719C669.311 698.734 667.623 700.375 665.701 700.375ZM674.878 700V666.062H680.878V678.719H681.112C682.049 676.891 683.878 674.219 688.378 674.219C694.284 674.219 698.924 678.812 698.924 687.297C698.924 695.688 694.378 700.469 688.424 700.469C684.018 700.469 682.049 697.844 681.112 695.969H680.737V700H674.878ZM680.737 687.25C680.737 692.219 682.893 695.547 686.737 695.547C690.721 695.547 692.831 692.078 692.831 687.25C692.831 682.516 690.768 679.094 686.737 679.094C682.893 679.094 680.737 682.328 680.737 687.25ZM714.241 700.516C706.835 700.516 702.054 695.266 702.054 687.391C702.054 679.469 706.835 674.219 714.241 674.219C721.694 674.219 726.429 679.469 726.429 687.391C726.429 695.266 721.694 700.516 714.241 700.516ZM714.288 695.734C718.366 695.734 720.382 692.031 720.382 687.344C720.382 682.703 718.366 678.953 714.288 678.953C710.116 678.953 708.101 682.703 708.101 687.344C708.101 692.031 710.116 695.734 714.288 695.734ZM740.058 700.469C734.058 700.469 729.558 695.688 729.558 687.297C729.558 678.812 734.199 674.219 740.105 674.219C744.605 674.219 746.48 676.891 747.371 678.719H747.605V666.062H753.558V700H747.699V695.969H747.371C746.433 697.844 744.464 700.469 740.058 700.469ZM741.699 695.547C745.542 695.547 747.746 692.219 747.746 687.25C747.746 682.328 745.589 679.094 741.699 679.094C737.714 679.094 735.652 682.516 735.652 687.25C735.652 692.078 737.761 695.547 741.699 695.547ZM762.734 709.562C761.562 709.562 760.391 709.516 759.641 709.422V704.641C760.391 704.688 761.375 704.734 762.172 704.734C763.625 704.734 764.844 704.594 765.875 701.875L766.391 700.516L757.109 674.547H763.438L769.344 693.766H769.625L775.531 674.547H781.859L771.641 703.094C770.188 707.172 767.516 709.562 762.734 709.562ZM787.239 700.375C785.223 700.375 783.583 698.734 783.583 696.719C783.583 694.75 785.223 693.109 787.239 693.109C789.161 693.109 790.848 694.75 790.848 696.719C790.848 698.734 789.161 700.375 787.239 700.375ZM808.837 674.547V679.141H803.821V692.359C803.821 694.797 805.04 695.312 806.54 695.312C807.243 695.312 808.415 695.266 809.165 695.219V700.094C808.462 700.234 807.29 700.328 805.79 700.328C801.29 700.328 797.821 698.125 797.868 693.344V679.141H794.212V674.547H797.868V668.453H803.821V674.547H808.837ZM823.966 700.516C816.279 700.516 811.591 695.406 811.591 687.438C811.591 679.562 816.372 674.219 823.638 674.219C829.872 674.219 835.263 678.109 835.263 687.062V688.938H817.497C817.568 693.273 820.122 695.828 824.013 695.828C826.638 695.828 828.419 694.703 829.169 693.203H835.029C833.951 697.609 829.872 700.516 823.966 700.516ZM817.544 684.859H829.544C829.497 681.391 827.201 678.859 823.732 678.859C820.122 678.859 817.732 681.602 817.544 684.859ZM850.533 700.516C842.939 700.516 838.346 695.078 838.346 687.391C838.346 679.609 843.08 674.219 850.533 674.219C856.721 674.219 861.033 677.828 861.455 683.312H855.736C855.268 680.875 853.486 679 850.58 679C846.877 679 844.393 682.141 844.393 687.25C844.393 692.5 846.83 695.641 850.58 695.641C853.252 695.641 855.221 694.094 855.736 691.328H861.455C860.986 696.719 856.908 700.516 850.533 700.516ZM871.475 685.094V700H865.475V666.062H871.334V678.859H871.662C872.834 676 875.272 674.219 879.209 674.219C884.506 674.219 887.975 677.641 887.975 683.781V700H882.022V684.719C882.022 681.25 880.147 679.281 877.006 679.281C873.772 679.281 871.475 681.391 871.475 685.094Z" fill="black"/>
<path d="M105.032 793.408V797.632H88.232V812.128H83.048V797.632H66.44V793.408H105.032ZM68.456 786.496C76.712 785.44 82.28 781.024 82.712 776.32H69.992V772.192H101.48V776.32H88.76C89.144 781.024 94.664 785.44 103.016 786.496L101.096 790.624C93.896 789.568 88.28 786.256 85.736 781.648C83.144 786.256 77.528 789.568 70.376 790.624L68.456 786.496ZM124.052 792.544V799.36C127.748 799.168 131.492 798.832 134.996 798.304L135.38 802.144C125.876 803.92 115.748 803.968 108.212 803.968L107.636 799.744C110.9 799.744 114.788 799.696 118.868 799.552V792.544H124.052ZM108.596 789.856C114.98 788.176 118.484 783.952 118.772 779.2H109.844V774.976H118.868V770.176H124.052V774.976H133.268V779.2H124.148C124.436 783.712 128.084 787.84 134.42 789.472L132.02 793.504C127.028 792.16 123.428 789.232 121.508 785.44C119.684 789.424 116.132 792.496 111.092 793.888L108.596 789.856ZM137.492 812.224V769.792H142.676V812.224H137.492ZM174.67 772.48L163.726 813.088H158.542L169.486 772.48H174.67ZM225.679 793.408V797.632H208.879V812.128H203.695V797.632H187.087V793.408H225.679ZM189.103 786.496C197.359 785.44 202.927 781.024 203.359 776.32H190.639V772.192H222.127V776.32H209.407C209.791 781.024 215.311 785.44 223.663 786.496L221.743 790.624C214.543 789.568 208.927 786.256 206.383 781.648C203.791 786.256 198.175 789.568 191.023 790.624L189.103 786.496ZM251.707 772.96V775.456C251.659 778.336 251.659 782.56 250.651 787.936L245.563 787.456C246.379 783.04 246.523 779.776 246.571 777.184H230.107V772.96H251.707ZM227.611 791.296C230.107 791.296 232.891 791.248 235.867 791.2V782.56H241.051V791.008C245.419 790.864 249.931 790.528 254.011 789.952L254.299 793.696C245.515 795.28 235.483 795.472 228.091 795.52L227.611 791.296ZM233.947 811.36V798.688H239.131V807.136H263.227V811.36H233.947ZM256.507 801.568V769.792H261.883V783.04H267.355V787.36H261.883V801.568H256.507ZM289.557 769.312V812.8H283.989V769.312H289.557ZM341.211 791.104V795.328H328.731V803.008H345.531V807.232H306.843V803.008H323.547V795.328H311.547V772.96H340.923V777.088H316.827V781.984H339.867V786.112H316.827V791.104H341.211ZM369.352 771.616V775.744H354.76V779.104H368.488V783.04H354.76V786.592C362.296 786.592 366.76 786.448 372.04 785.632L372.52 789.664C366.712 790.624 361.72 790.72 352.936 790.72H349.576V771.616H369.352ZM353.512 797.632V793.504H381.256V804.352H358.696V807.712H382.6V811.84H353.608V800.608H376.072V797.632H353.512ZM375.976 791.68V769.792H381.256V778.432H387.208V782.656H381.256V791.68H375.976ZM411.22 773.728V801.856H391.06V773.728H411.22ZM396.244 797.728H406.132V777.856H396.244V797.728ZM418.804 812.224V769.792H424.084V812.224H418.804ZM451.84 771.136C451.792 775.696 457.6 779.824 466.432 780.832L464.704 784.672C457.552 783.856 451.84 780.976 449.104 776.896C446.368 780.976 440.656 783.856 433.6 784.672L431.776 780.832C440.656 779.824 446.416 775.696 446.464 771.136V769.984H451.84V771.136ZM429.856 790.912V786.784H468.448V790.912H451.648V794.176H463.648V804.736H439.552V807.808H464.8V811.84H434.368V800.992H458.464V798.208H434.368V794.176H446.464V790.912H429.856ZM494.477 772.96V775.456C494.429 778.336 494.429 782.56 493.421 787.936L488.333 787.456C489.149 783.04 489.293 779.776 489.341 777.184H472.877V772.96H494.477ZM470.381 791.296C472.877 791.296 475.661 791.248 478.637 791.2V782.56H483.821V791.008C488.189 790.864 492.701 790.528 496.781 789.952L497.069 793.696C488.285 795.28 478.253 795.472 470.861 795.52L470.381 791.296ZM476.717 811.36V798.688H481.901V807.136H505.997V811.36H476.717ZM499.277 801.568V769.792H504.653V783.04H510.125V787.36H504.653V801.568H499.277ZM85.448 863.288C94.712 863.288 100.52 866.216 100.52 871.256C100.52 876.2 94.712 879.128 85.448 879.128C76.376 879.128 70.472 876.2 70.472 871.256C70.472 866.216 76.376 863.288 85.448 863.288ZM66.44 860.216V855.992H81.416V848.312H86.504V855.992H104.936V860.216H66.44ZM70.856 842.936V838.808H100.232V842.264C100.28 845.672 100.28 849.224 99.08 853.592L93.992 853.112C95 848.984 95.048 846.056 95.048 842.936H70.856ZM75.752 871.256C75.704 873.752 79.352 875.096 85.448 875.096C91.64 875.096 95.336 873.752 95.336 871.256C95.336 868.664 91.64 867.224 85.448 867.224C79.352 867.224 75.704 868.664 75.752 871.256ZM146.036 857.144V861.272H107.444V857.144H124.244V853.016H112.148V838.712H141.428V842.84H117.332V848.888H141.62V853.016H129.332V857.144H146.036ZM111.86 871.448C111.908 866.456 117.476 863.672 126.644 863.672C135.812 863.672 141.332 866.456 141.332 871.448C141.332 876.344 135.812 879.176 126.644 879.224C117.476 879.176 111.908 876.344 111.86 871.448ZM117.236 871.448C117.188 873.896 120.5 875.144 126.644 875.096C132.74 875.144 136.1 873.896 136.148 871.448C136.1 869 132.74 867.704 126.644 867.704C120.5 867.704 117.188 869 117.236 871.448ZM187.041 860.408V864.632H170.241V879.128H165.057V864.632H148.449V860.408H187.041ZM150.465 853.496C158.721 852.44 164.289 848.024 164.721 843.32H152.001V839.192H183.489V843.32H170.769C171.153 848.024 176.673 852.44 185.025 853.496L183.105 857.624C175.905 856.568 170.289 853.256 167.745 848.648C165.153 853.256 159.537 856.568 152.385 857.624L150.465 853.496ZM213.069 839.96V842.456C213.021 845.336 213.021 849.56 212.013 854.936L206.925 854.456C207.741 850.04 207.885 846.776 207.933 844.184H191.469V839.96H213.069ZM188.973 858.296C191.469 858.296 194.253 858.248 197.229 858.2V849.56H202.413V858.008C206.781 857.864 211.293 857.528 215.373 856.952L215.661 860.696C206.877 862.28 196.845 862.472 189.453 862.52L188.973 858.296ZM195.309 878.36V865.688H200.493V874.136H224.589V878.36H195.309ZM217.869 868.568V836.792H223.245V850.04H228.717V854.36H223.245V868.568H217.869ZM250.919 836.312V879.8H245.351V836.312H250.919ZM279.533 839.864C285.917 839.912 290.525 845.72 290.573 854.84C290.525 864.056 285.917 869.864 279.533 869.816C273.149 869.864 268.493 864.056 268.589 854.84C268.493 845.72 273.149 839.912 279.533 839.864ZM273.581 854.84C273.533 861.368 275.981 865.16 279.533 865.112C283.181 865.16 285.533 861.368 285.581 854.84C285.533 848.408 283.181 844.568 279.533 844.568C275.981 844.568 273.533 848.408 273.581 854.84ZM296.141 879.128V836.792H301.325V853.112H307.853V857.432H301.325V879.128H296.141ZM344.729 836.792V879.224H339.545V856.28H331.577V852.152H339.545V836.792H344.729ZM311.129 869.432V840.44H330.905V844.664H316.313V852.344H329.273V856.472H316.313V865.208C322.793 865.112 327.593 864.92 333.017 864.056L333.593 868.184C327.401 869.192 321.977 869.432 314.393 869.432H311.129ZM367.398 841.688V845.816H356.55V853.016H365.67V857.048H356.55V865.304C361.59 865.256 365.046 865.016 369.222 864.344L369.702 868.472C364.806 869.432 360.774 869.528 354.342 869.528H351.558V841.688H367.398ZM367.686 856.664V852.44H372.966V837.656H377.862V877.112H372.966V856.664H367.686ZM381.702 879.128V836.792H386.694V879.128H381.702ZM426.45 836.888V867.416H421.266V836.888H426.45ZM391.986 850.232C391.938 844.04 396.93 839.624 403.41 839.672C409.794 839.624 414.786 844.04 414.738 850.232C414.786 856.472 409.794 860.84 403.41 860.792C396.93 860.84 391.938 856.472 391.986 850.232ZM397.074 850.232C397.026 853.976 399.762 856.28 403.41 856.28C406.914 856.28 409.65 853.976 409.65 850.232C409.65 846.536 406.914 844.184 403.41 844.184C399.762 844.184 397.026 846.536 397.074 850.232ZM398.418 878.36V864.344H403.698V874.136H427.602V878.36H398.418ZM440.479 871.64L436.639 884.792H432.127L434.527 871.64H440.479ZM491.461 836.792V879.128H486.469V836.792H491.461ZM455.365 855.128C455.365 845.816 458.965 840.008 464.485 840.056C468.085 840.008 470.869 842.36 472.453 846.488H478.021V837.56H482.917V877.112H478.021V863.768H472.453C470.917 867.944 468.085 870.296 464.485 870.296C458.965 870.296 455.365 864.488 455.365 855.128ZM460.165 855.128C460.117 861.752 461.749 865.304 464.485 865.304C467.317 865.304 469.045 861.752 469.093 855.128C469.045 848.504 467.317 844.904 464.485 844.952C461.749 844.904 460.117 848.504 460.165 855.128ZM473.509 850.712C473.701 852.056 473.797 853.544 473.797 855.128C473.797 856.664 473.701 858.104 473.509 859.448H478.021V850.712H473.509ZM517.97 838.136C517.922 842.696 523.73 846.824 532.562 847.832L530.834 851.672C523.682 850.856 517.97 847.976 515.234 843.896C512.498 847.976 506.786 850.856 499.73 851.672L497.906 847.832C506.786 846.824 512.546 842.696 512.594 838.136V836.984H517.97V838.136ZM495.986 857.912V853.784H534.578V857.912H517.778V861.176H529.778V871.736H505.682V874.808H530.93V878.84H500.498V867.992H524.594V865.208H500.498V861.176H512.594V857.912H495.986ZM555.998 863.288C565.262 863.288 571.07 866.216 571.07 871.256C571.07 876.2 565.262 879.128 555.998 879.128C546.926 879.128 541.022 876.2 541.022 871.256C541.022 866.216 546.926 863.288 555.998 863.288ZM536.99 860.216V855.992H551.966V848.312H557.054V855.992H575.486V860.216H536.99ZM541.406 842.936V838.808H570.782V842.264C570.83 845.672 570.83 849.224 569.63 853.592L564.542 853.112C565.55 848.984 565.598 846.056 565.598 842.936H541.406ZM546.302 871.256C546.254 873.752 549.902 875.096 555.998 875.096C562.19 875.096 565.886 873.752 565.886 871.256C565.886 868.664 562.19 867.224 555.998 867.224C549.902 867.224 546.254 868.664 546.302 871.256ZM611.402 836.792V848.984H617.354V853.304H611.402V867.32H606.122V836.792H611.402ZM577.802 858.872C587.546 855.992 593.306 850.712 594.17 844.28H579.626V840.056H599.882C599.882 851.288 592.538 859.304 580.01 863L577.802 858.872ZM584.138 878.36V864.248H589.418V874.136H612.938V878.36H584.138ZM643.684 839.768C650.404 839.72 655.3 843.944 655.3 849.944C655.3 855.992 650.404 860.216 643.684 860.216C637.012 860.216 632.02 855.992 632.068 849.944C632.02 843.944 637.012 839.72 643.684 839.768ZM630.148 866.072C637.78 866.072 648.34 865.976 657.508 864.728L657.892 868.472C648.388 870.296 638.26 870.344 630.724 870.392L630.148 866.072ZM637.156 849.944C637.156 853.496 639.94 855.704 643.684 855.704C647.428 855.704 650.212 853.496 650.212 849.944C650.212 846.44 647.428 844.232 643.684 844.28C639.94 844.232 637.156 846.44 637.156 849.944ZM660.004 879.224V836.792H665.188V879.224H660.004ZM686.705 842.84C686.705 848.408 690.209 853.688 696.977 855.8L694.385 859.928C689.489 858.296 685.985 855.08 684.065 850.904C682.145 855.368 678.593 858.92 673.553 860.6L670.961 856.472C677.825 854.216 681.329 848.6 681.329 842.84V838.808H686.705V842.84ZM677.297 868.28V864.056H706.193V879.128H701.009V868.28H677.297ZM701.009 862.136V836.792H706.193V862.136H701.009ZM750.557 860.408V864.632H733.757V879.128H728.573V864.632H711.965V860.408H750.557ZM713.981 853.496C722.237 852.44 727.805 848.024 728.237 843.32H715.517V839.192H747.005V843.32H734.285C734.669 848.024 740.189 852.44 748.541 853.496L746.621 857.624C739.421 856.568 733.805 853.256 731.261 848.648C728.669 853.256 723.053 856.568 715.901 857.624L713.981 853.496ZM102.92 909.4V913.528H68.36V909.4H83.144V904.696H88.232V909.4H102.92ZM66.44 936.472V932.152H105.128V936.472H88.232V947.224H83.144V936.472H66.44ZM71.336 922.648C71.336 918.04 76.712 915.496 85.736 915.448C94.616 915.496 100.04 918.04 100.04 922.648C100.04 927.304 94.616 929.848 85.736 929.848C76.712 929.848 71.336 927.304 71.336 922.648ZM76.808 922.648C76.712 924.808 79.832 925.96 85.736 925.912C91.496 925.96 94.616 924.808 94.664 922.648C94.616 920.488 91.496 919.384 85.736 919.384C79.832 919.384 76.712 920.488 76.808 922.648ZM142.964 904.888V936.856H137.684V933.208H129.428V929.56H137.684V904.888H142.964ZM107.252 923.896C115.028 923.848 125.54 923.752 134.516 922.648L134.804 926.392C131.348 926.968 127.7 927.352 124.148 927.592V935.704H118.964V927.88C114.98 928.024 111.188 928.024 107.828 928.024L107.252 923.896ZM110.42 913.912C110.468 909.4 114.74 906.376 121.076 906.424C127.22 906.376 131.54 909.4 131.54 913.912C131.54 918.424 127.22 921.352 121.076 921.304C114.788 921.352 110.468 918.424 110.42 913.912ZM112.82 946.36V933.784H118.1V942.136H143.924V946.36H112.82ZM115.412 913.912C115.364 916.216 117.668 917.512 121.076 917.56C124.292 917.512 126.596 916.216 126.644 913.912C126.596 911.608 124.292 910.216 121.076 910.264C117.668 910.216 115.364 911.608 115.412 913.912ZM168.91 904.312V947.8H163.342V904.312H168.91ZM219.604 904.888V918.136H225.556V922.456H219.604V936.472H214.324V904.888H219.604ZM186.196 913.72V909.496H196.18V904.792H201.364V909.496H211.348V913.72H186.196ZM188.404 923.608C188.356 918.664 192.628 915.448 198.772 915.448C204.868 915.448 209.092 918.664 209.14 923.608C209.092 928.408 204.868 931.576 198.772 931.576C192.628 931.576 188.356 928.408 188.404 923.608ZM192.436 946.36V933.976H197.62V942.136H221.236V946.36H192.436ZM193.396 923.608C193.396 926.104 195.556 927.544 198.772 927.544C201.988 927.544 204.148 926.104 204.148 923.608C204.148 920.968 201.988 919.48 198.772 919.48C195.556 919.48 193.396 920.968 193.396 923.608ZM261.185 906.712V909.976C261.185 913.096 261.185 916.792 260.273 921.496H265.889V925.72H249.089V932.344H261.281V947.128H256.001V936.472H231.137V932.344H243.809V925.72H227.201V921.496H254.993C255.857 917.176 255.953 913.864 256.001 910.936H232.001V906.712H261.185ZM306.893 926.008V930.136H290.477V937.912H285.293V930.136H268.109V926.008H306.893ZM272.813 946.36V934.072H277.997V942.136H302.573V946.36H272.813ZM273.005 922.072V906.712H301.901V922.072H273.005ZM278.093 917.944H296.717V910.84H278.093V917.944ZM342.713 904.792V922.264H348.665V926.68H342.713V947.128H337.433V904.792H342.713ZM308.633 935.416C311.849 935.416 315.593 935.416 319.481 935.32V931.336C314.873 930.568 311.849 927.688 311.897 923.704C311.849 918.904 316.073 915.736 322.169 915.736C328.169 915.736 332.441 918.904 332.441 923.704C332.441 927.688 329.369 930.568 324.761 931.384V935.128C328.313 934.936 331.865 934.648 335.225 934.168L335.513 938.008C326.441 939.64 316.649 939.688 309.401 939.736L308.633 935.416ZM309.497 913.816V909.688H319.481V904.984H324.761V909.688H334.745V913.816H309.497ZM316.793 923.704C316.793 926.104 318.953 927.544 322.169 927.544C325.337 927.544 327.449 926.104 327.449 923.704C327.449 921.208 325.337 919.72 322.169 919.768C318.953 919.72 316.793 921.208 316.793 923.704ZM386.694 904.792V947.128H381.702V904.792H386.694ZM350.598 923.128C350.598 913.816 354.198 908.008 359.718 908.056C363.318 908.008 366.102 910.36 367.686 914.488H373.254V905.56H378.15V945.112H373.254V931.768H367.686C366.15 935.944 363.318 938.296 359.718 938.296C354.198 938.296 350.598 932.488 350.598 923.128ZM355.398 923.128C355.35 929.752 356.982 933.304 359.718 933.304C362.55 933.304 364.278 929.752 364.326 923.128C364.278 916.504 362.55 912.904 359.718 912.952C356.982 912.904 355.35 916.504 355.398 923.128ZM368.742 918.712C368.934 920.056 369.03 921.544 369.03 923.128C369.03 924.664 368.934 926.104 368.742 927.448H373.254V918.712H368.742ZM413.202 906.136C413.154 910.696 418.962 914.824 427.794 915.832L426.066 919.672C418.914 918.856 413.202 915.976 410.466 911.896C407.73 915.976 402.018 918.856 394.962 919.672L393.138 915.832C402.018 914.824 407.778 910.696 407.826 906.136V904.984H413.202V906.136ZM391.218 925.912V921.784H429.81V925.912H413.01V929.176H425.01V939.736H400.914V942.808H426.162V946.84H395.73V935.992H419.826V933.208H395.73V929.176H407.826V925.912H391.218ZM446.047 906.712C452.479 906.664 457.135 910.264 457.087 915.544C457.135 920.776 452.479 924.472 446.047 924.472C439.615 924.472 435.007 920.776 435.007 915.544C435.007 910.264 439.615 906.664 446.047 906.712ZM432.223 927.352C439.855 927.352 450.559 927.208 459.679 925.816L460.063 929.656C456.415 930.376 452.623 930.856 448.927 931.144V945.88H443.647V931.432C439.759 931.576 436.063 931.624 432.895 931.672L432.223 927.352ZM440.095 915.544C440.047 918.424 442.543 920.2 446.047 920.152C449.647 920.2 452.143 918.424 452.191 915.544C452.143 912.664 449.647 910.84 446.047 910.84C442.543 910.84 440.047 912.664 440.095 915.544ZM462.463 947.128V904.888H467.647V947.128H462.463ZM508.747 904.888V936.856H503.467V933.208H495.211V929.56H503.467V904.888H508.747ZM473.035 923.896C480.811 923.848 491.323 923.752 500.299 922.648L500.587 926.392C497.131 926.968 493.483 927.352 489.931 927.592V935.704H484.747V927.88C480.763 928.024 476.971 928.024 473.611 928.024L473.035 923.896ZM476.203 913.912C476.251 909.4 480.523 906.376 486.859 906.424C493.003 906.376 497.323 909.4 497.323 913.912C497.323 918.424 493.003 921.352 486.859 921.304C480.571 921.352 476.251 918.424 476.203 913.912ZM478.603 946.36V933.784H483.883V942.136H509.707V946.36H478.603ZM481.195 913.912C481.147 916.216 483.451 917.512 486.859 917.56C490.075 917.512 492.379 916.216 492.427 913.912C492.379 911.608 490.075 910.216 486.859 910.264C483.451 910.216 481.147 911.608 481.195 913.912ZM549.463 904.792V947.128H544.279V904.792H549.463ZM514.423 935.416C517.783 935.416 521.575 935.368 525.559 935.272V931.384C520.807 930.616 517.687 927.736 517.687 923.704C517.687 918.904 521.959 915.736 528.151 915.736C534.343 915.736 538.663 918.904 538.615 923.704C538.663 927.736 535.495 930.616 530.743 931.384V935.08C534.487 934.936 538.231 934.648 541.783 934.168L542.167 938.008C532.855 939.592 522.775 939.688 515.095 939.736L514.423 935.416ZM515.287 913.816V909.688H525.559V904.984H530.839V909.688H541.015V913.816H515.287ZM522.679 923.704C522.631 926.104 524.935 927.544 528.151 927.544C531.415 927.544 533.671 926.104 533.719 923.704C533.671 921.208 531.415 919.72 528.151 919.768C524.935 919.72 522.631 921.208 522.679 923.704Z" fill="black"/>
</g>
<defs>
<filter id="filter0_d_330_177" x="-35" y="0" width="1096" height="1059" filterUnits="userSpaceOnUse" color-interpolation-filters="sRGB">
<feFlood flood-opacity="0" result="BackgroundImageFix"/>
<feColorMatrix in="SourceAlpha" type="matrix" values="0 0 0 0 0 0 0 0 0 0 0 0 0 0 0 0 0 0 127 0" result="hardAlpha"/>
<feOffset/>
<feGaussianBlur stdDeviation="50"/>
<feComposite in2="hardAlpha" operator="out"/>
<feColorMatrix type="matrix" values="0 0 0 0 1 0 0 0 0 1 0 0 0 0 1 0 0 0 1 0"/>
<feBlend mode="normal" in2="BackgroundImageFix" result="effect1_dropShadow_330_177"/>
<feBlend mode="normal" in="SourceGraphic" in2="effect1_dropShadow_330_177" result="shape"/>
</filter>
<clipPath id="clip0_330_177">
<rect width="133" height="133" fill="white" transform="translate(65 100)"/>
</clipPath>
</defs>
</svg>
