<svg width="1057" height="947" viewBox="0 0 1057 947" fill="none" xmlns="http://www.w3.org/2000/svg">
<g filter="url(#filter0_d_330_177)">
<g clip-path="url(#clip0_330_177)">
<path d="M155.446 142.598H160.638V153.055C162.56 153.055 164.261 153.055 165.964 153.058C165.967 153.061 165.888 152.991 165.888 152.991V158.249H160.913V163.617H182.193V169.293H177.09V179.806H171.886V174.704C169.756 174.704 167.875 174.704 165.994 174.704C165.994 172.988 165.994 171.273 165.994 169.551H160.921V174.636H166.062V179.884H160.877V185.097H182.154V190.386H177.23V201.06H182.342L182.274 200.992V211.934H177.2V222.617H182.347L182.282 222.548V227.886L182.347 227.816H160.842V232.976H155.554V227.962H150.167C150.167 225.997 150.167 224.276 150.167 222.556C151.884 222.556 153.598 222.556 155.321 222.556V217.483H150.235V222.624H145.02V227.892C143.069 227.892 141.353 227.892 139.638 227.892C139.638 226.176 139.638 224.462 139.638 222.739H134.565V227.824H139.706V232.968H128.732V228.041H123.438V232.988H118.23V217.483H112.861V233.003H107.736V206.731C109.414 206.731 111.135 206.731 112.856 206.731C112.856 208.442 112.856 210.153 112.856 211.895H118.16V206.819C119.908 206.791 121.656 206.762 123.404 206.734C123.404 208.458 123.404 210.182 123.404 212.009H128.68V217.135H139.732V212.012H150.05V195.707H144.908L144.976 195.775V190.358H139.576V180.096H128.526V185.295H123.529V190.592H128.514V195.804H123.407C123.407 197.724 123.407 199.388 123.407 201.052C121.701 201.052 119.995 201.052 118.233 201.052C118.233 203.148 118.233 205.016 118.23 206.879C116.414 206.851 114.599 206.824 112.786 206.797V201.095H107.593V190.445L107.523 190.51H112.899V185.108H118.133V179.901L118.067 179.968H123.335C123.335 176.198 123.335 172.779 123.335 169.361C125.059 169.361 126.783 169.361 128.758 169.361V174.535H139.721V169.282H145.018V163.589H150.171C150.171 161.669 150.171 160.003 150.171 158.339C151.893 158.339 153.617 158.339 155.513 158.339V142.525L155.448 142.595L155.446 142.598ZM150.178 179.893H155.321V169.572H150.247C150.247 173.153 150.247 176.558 150.247 179.962H145.093V185.034H150.178V179.893ZM155.611 190.588V206.612H171.595V190.588H155.611ZM171.644 222.48V212.192H165.912V217.388H160.906V222.48H171.644Z" fill="black"/>
<path d="M197.948 137.105C195.785 137.105 193.725 137.105 191.663 137.105C182.165 137.105 172.667 137.093 163.168 137.117C161.857 137.12 160.891 137.117 160.902 135.293C160.972 123.881 160.942 112.468 160.955 101.055C160.955 100.75 161.062 100.446 161.14 100.029H197.948V137.106V137.105ZM166.498 105.309V131.598H192.815V105.309H166.498Z" fill="black"/>
<path d="M65.082 100H101.948V136.873H65.082V100ZM70.3735 105.262V131.537H96.7566V105.262H70.3735Z" fill="black"/>
<path d="M65 232.955V196.084H101.869V232.955H65ZM70.2931 227.726H96.7617V201.408H70.2931V227.726Z" fill="black"/>
<path d="M123.338 126.306H139.607V121.082H144.824V115.885H150.124V120.889H155.445C155.445 128.295 155.445 135.447 155.445 142.598L155.51 142.529C153.734 142.553 151.956 142.578 150.179 142.602C150.179 139.135 150.179 135.666 150.179 132.18H145.101V142.534H150.247V147.916H134.423V153.139C130.728 153.139 127.032 153.139 123.337 153.139C123.337 151.421 123.337 149.704 123.337 147.75H128.603C128.603 145.844 128.603 144.186 128.603 142.529C132.241 142.529 135.88 142.529 139.477 142.529V132.148H134.336V137.328C132.256 137.328 130.432 137.328 128.608 137.328C128.608 135.604 128.608 133.88 128.608 132.053H123.332C123.356 130.115 123.38 128.176 123.402 126.238L123.337 126.308L123.338 126.306Z" fill="black"/>
<path d="M107.592 190.443H91.3709V180.018H75.4837V174.631L75.4141 174.696H80.7531V169.357L80.6866 169.424H86.0905V174.764H118.066V179.964L118.132 179.898H107.522V190.506L107.592 190.441V190.443ZM102.166 180.072H97.1706V185.024H102.166V180.072Z" fill="black"/>
<path d="M182.342 201.06V195.812H192.717V185.258H187.668V179.967H182.43V174.762H187.54V163.771H197.939V174.597H192.991V179.804H197.96V200.992C192.735 200.992 187.503 200.992 182.273 200.992L182.342 201.06Z" fill="black"/>
<path d="M112.802 121.037H117.987V115.679C119.913 115.679 121.612 115.679 123.314 115.682C123.317 115.685 123.238 115.615 123.238 115.615C123.271 119.179 123.306 122.742 123.339 126.306L123.404 126.236H118.136C118.136 128.405 118.136 130.229 118.136 132.051C116.412 132.051 114.688 132.051 112.794 132.051V137.323L112.859 137.253H107.723V126.354H112.868V120.971L112.8 121.039L112.802 121.037Z" fill="black"/>
<path d="M128.681 110.483V105.235H139.583V100.098H155.319V105.104H145.051V110.415H128.613L128.681 110.483Z" fill="black"/>
<path d="M91.3735 147.698H80.8396V152.941H75.5386V147.946H65.0664V142.693H91.3102C91.3102 144.46 91.3102 146.116 91.307 147.775C91.3038 147.778 91.3735 147.699 91.3735 147.699V147.698Z" fill="black"/>
<path d="M75.4853 169.426V158.486H85.9036V153.14H91.2949L91.23 153.07V163.722H80.6866V169.429L80.7531 169.362H75.4141L75.4837 169.427L75.4853 169.426Z" fill="black"/>
<path d="M75.4844 174.631H70.2293V190.345H65.0898V169.424C68.5257 169.424 72.0058 169.424 75.4844 169.424L75.4148 169.359C75.4148 171.139 75.4148 172.918 75.4148 174.698L75.4844 174.633V174.631Z" fill="black"/>
<path d="M97.0501 147.864V142.641H112.86C112.86 140.692 112.86 138.973 112.86 137.254L112.795 137.324C114.576 137.301 116.356 137.279 118.137 137.259V147.799H96.9805L97.0501 147.864Z" fill="black"/>
<path d="M177.004 147.805V158.206H171.8V152.994C169.665 152.994 167.78 152.994 165.891 152.991C165.888 152.988 165.967 153.058 165.964 153.056C165.96 149.641 165.96 146.231 165.96 142.691H171.654V147.873H177.071L177.003 147.805H177.004Z" fill="black"/>
<path d="M192.82 222.548V227.798H198.001V232.938H182.346V227.814L182.281 227.883H187.62V222.545L187.554 222.611H192.893L192.823 222.547L192.82 222.548Z" fill="black"/>
<path d="M187.624 217.342V212.203H197.971V222.547H192.82L192.89 222.612V217.274H187.551L187.62 217.339L187.624 217.342Z" fill="black"/>
<path d="M85.8731 185.361V190.361H75.6289V185.361H85.8731Z" fill="black"/>
<path d="M91.2931 153.139C91.3184 151.328 91.3437 149.516 91.3706 147.701C91.3738 147.698 91.3041 147.777 91.3057 147.774C93.2216 147.803 95.1342 147.833 97.0469 147.863L96.9772 147.798C96.9994 149.579 97.0216 151.358 97.0421 153.139C95.1041 153.116 93.1646 153.092 91.2266 153.07L91.2915 153.139H91.2931Z" fill="black"/>
<path d="M128.531 115.861H134.274V120.81H128.595C128.595 119.195 128.595 117.492 128.598 115.785C128.601 115.782 128.531 115.861 128.531 115.861Z" fill="black"/>
<path d="M187.389 158.323H182.496V153.262H187.389V158.323Z" fill="black"/>
<path d="M112.869 105.214V100.086H117.943V105.146H112.801L112.869 105.214Z" fill="black"/>
<path d="M70.0458 158.262H65.082V153.256H70.0474V158.262H70.0458Z" fill="black"/>
<path d="M192.832 147.873H197.96V152.947H192.9V147.805L192.832 147.873Z" fill="black"/>
<path d="M192.899 147.804H187.758V142.719H192.831C192.831 144.441 192.831 146.156 192.831 147.872L192.899 147.804Z" fill="black"/>
<path d="M177.072 147.873V142.732H182.158V147.805C180.435 147.805 178.72 147.805 177.004 147.805L177.072 147.873Z" fill="black"/>
<path d="M112.868 120.97H107.727V115.885H112.8C112.8 117.607 112.8 119.322 112.8 121.038L112.868 120.97Z" fill="black"/>
<path d="M128.612 110.416C128.585 112.229 128.56 114.043 128.53 115.859C128.527 115.862 128.596 115.783 128.595 115.786C126.809 115.734 125.026 115.677 123.238 115.62C123.235 115.617 123.314 115.686 123.311 115.685C123.308 114.033 123.308 112.385 123.308 110.486C125.248 110.486 126.964 110.486 128.679 110.486L128.611 110.418L128.612 110.416Z" fill="black"/>
<path d="M182.348 222.617V217.342H187.623L187.554 217.277V222.616L187.62 222.549H182.281L182.346 222.619L182.348 222.617Z" fill="black"/>
<path d="M112.801 105.145V110.285H107.715V105.213C109.438 105.213 111.152 105.213 112.869 105.213L112.801 105.145Z" fill="black"/>
<path d="M144.906 195.705V200.85H134.551V195.773C138.037 195.773 141.506 195.773 144.974 195.773L144.906 195.705Z" fill="black"/>
<path d="M128.609 212.071V206.734H134.227V212.071H128.609Z" fill="black"/>
<path d="M128.677 206.801H123.34C123.34 204.861 123.34 202.924 123.34 200.984H128.677V206.801Z" fill="black"/>
<path d="M107.517 158.348V163.612H123.404V169.428H97.2109V163.74H102.252V158.342C104.03 158.367 105.808 158.392 107.585 158.418L107.517 158.35V158.348Z" fill="black"/>
<path d="M96.9805 153.07H102.319V158.409H96.9805V153.07Z" fill="black"/>
<path d="M134.359 153.07H150.24V158.407H134.359V153.07Z" fill="black"/>
<path d="M123.336 163.676V158.338H128.475V163.676H123.336Z" fill="black"/>
<path d="M123.405 158.407H118.266V153.07H123.405V158.407Z" fill="black"/>
<path d="M160.855 200.889V195.918H165.87V200.889H160.855Z" fill="black"/>
<path d="M187.438 126.394H171.754V110.674H187.438V126.394Z" fill="black"/>
<path d="M75.6055 126.343V110.635H91.3311V126.343H75.6055Z" fill="black"/>
<path d="M91.3292 206.695V222.421H75.6289V206.695H91.3292Z" fill="black"/>
<path d="M107.584 158.416V153.275H112.669V158.348C110.947 158.348 109.232 158.348 107.516 158.348L107.584 158.416Z" fill="black"/>
<path d="M123.336 137.258H128.675V142.596H123.336V137.258Z" fill="black"/>
<path d="M118.066 137.325V131.986H123.405V137.325H118.066Z" fill="black"/>
</g>
<path d="M81.608 293.184C81.608 298.368 84.968 303.504 91.688 305.664L89 309.696C84.248 308.16 80.888 304.992 79.016 301.056C77.144 305.376 73.64 308.784 68.744 310.464L65.96 306.432C72.776 304.224 76.328 298.704 76.328 293.184V292.608H67.4V288.48H90.44V292.608H81.608V293.184ZM71.624 317.472V313.248H99.848V328.128H94.568V317.472H71.624ZM94.568 311.328V285.792H99.848V296.352H105.8V300.768H99.848V311.328H94.568ZM140.564 285.792V302.4H146.9V306.72H140.564V328.032H135.38V285.792H140.564ZM107.156 316.512C117.524 311.328 123.092 304.128 124.1 294.528H109.46V290.208H129.428C129.38 302.64 124.196 313.584 110.132 320.544L107.156 316.512ZM168.91 285.312V328.8H163.342V285.312H168.91ZM220.564 305.088V309.216H207.988V318.912H224.884V323.136H186.196V318.912H202.9V309.216H190.9V288.96H220.18V293.088H196.084V305.088H220.564ZM263.969 285.792V328.128H258.977V306.72H254.561V326.112H249.665V286.56H254.561V302.4H258.977V285.792H263.969ZM226.433 315.84C232.769 312.288 235.265 304.896 235.265 296.64V294.624H227.777V290.4H247.265V294.624H240.353V296.64C240.353 304.176 242.849 311.088 249.185 314.4L246.113 318.336C242.081 316.176 239.441 312.432 237.905 307.872C236.465 313.104 233.825 317.376 229.697 319.872L226.433 315.84ZM303.437 285.888V316.416H298.253V285.888H303.437ZM268.973 299.232C268.925 293.04 273.917 288.624 280.397 288.672C286.781 288.624 291.773 293.04 291.725 299.232C291.773 305.472 286.781 309.84 280.397 309.792C273.917 309.84 268.925 305.472 268.973 299.232ZM274.061 299.232C274.013 302.976 276.749 305.28 280.397 305.28C283.901 305.28 286.637 302.976 286.637 299.232C286.637 295.536 283.901 293.184 280.397 293.184C276.749 293.184 274.013 295.536 274.061 299.232ZM275.405 327.36V313.344H280.685V323.136H304.589V327.36H275.405ZM355.399 285.888V309.888H350.215V285.888H355.399ZM320.935 297.984C320.887 291.984 325.783 287.856 332.359 287.904C338.839 287.856 343.735 291.984 343.687 297.984C343.735 303.84 338.839 308.016 332.359 308.064C325.783 308.016 320.887 303.84 320.935 297.984ZM326.023 297.984C325.975 301.392 328.615 303.648 332.359 303.648C335.959 303.648 338.599 301.392 338.599 297.984C338.599 294.48 335.959 292.272 332.359 292.32C328.615 292.272 325.975 294.48 326.023 297.984ZM327.271 327.648V311.904H355.399V327.648H327.271ZM332.455 323.424H350.311V316.032H332.455V323.424ZM399.763 307.68V311.808H361.171V307.68H399.763ZM365.107 295.776C365.155 290.4 371.155 287.136 380.467 287.136C389.635 287.136 395.635 290.4 395.635 295.776C395.635 301.104 389.635 304.416 380.467 304.416C371.155 304.416 365.155 301.104 365.107 295.776ZM365.875 327.36V314.976H371.155V323.136H395.347V327.36H365.875ZM370.579 295.776C370.531 298.608 374.227 300.144 380.467 300.192C386.563 300.144 390.307 298.608 390.259 295.776C390.307 292.944 386.563 291.312 380.467 291.264C374.227 291.312 370.531 292.944 370.579 295.776ZM437.6 285.792V310.944H432.416V300.672H425.216V296.352H432.416V285.792H437.6ZM401.984 306.72C408.8 304.416 412.4 298.704 412.448 293.088V292.8H403.616V288.576H426.464V292.8H417.728V293.088C417.728 298.224 421.136 303.408 427.712 305.568L425.024 309.696C420.32 308.16 417.008 304.896 415.184 300.96C413.312 305.424 409.808 309.072 404.768 310.848L401.984 306.72ZM408.896 320.064C408.848 315.024 414.368 312.048 423.296 312C432.272 312.048 437.744 315.024 437.792 320.064C437.744 325.2 432.272 328.176 423.296 328.224C414.368 328.176 408.848 325.2 408.896 320.064ZM414.08 320.064C414.032 322.752 417.392 324.144 423.296 324.096C429.2 324.144 432.56 322.752 432.608 320.064C432.56 317.472 429.2 316.032 423.296 316.032C417.392 316.032 414.032 317.472 414.08 320.064ZM469.306 293.472C469.306 298.608 472.666 303.504 479.29 305.568L476.794 309.6C472.042 308.112 468.682 305.088 466.81 301.296C464.89 305.76 461.338 309.264 456.25 310.944L453.658 306.816C460.474 304.608 464.026 299.136 464.026 293.472V292.992H455.098V288.768H478.138V292.992H469.306V293.472ZM459.418 320.064C459.418 314.976 464.89 312 473.722 312C482.554 312 487.93 314.976 487.93 320.064C487.93 325.104 482.554 328.128 473.722 328.128C464.89 328.128 459.418 325.104 459.418 320.064ZM464.602 320.064C464.602 322.656 467.914 324.048 473.722 324C479.53 324.048 482.794 322.656 482.842 320.064C482.794 317.472 479.53 316.08 473.722 316.128C467.914 316.08 464.602 317.472 464.602 320.064ZM482.266 311.04V285.792H487.546V295.968H493.498V300.288H487.546V311.04H482.266ZM531.622 285.792V328.128H526.63V285.792H531.622ZM495.526 304.128C495.526 294.816 499.126 289.008 504.646 289.056C508.246 289.008 511.03 291.36 512.614 295.488H518.182V286.56H523.078V326.112H518.182V312.768H512.614C511.078 316.944 508.246 319.296 504.646 319.296C499.126 319.296 495.526 313.488 495.526 304.128ZM500.326 304.128C500.278 310.752 501.91 314.304 504.646 314.304C507.478 314.304 509.206 310.752 509.254 304.128C509.206 297.504 507.478 293.904 504.646 293.952C501.91 293.904 500.278 297.504 500.326 304.128ZM513.67 299.712C513.862 301.056 513.958 302.544 513.958 304.128C513.958 305.664 513.862 307.104 513.67 308.448H518.182V299.712H513.67ZM571.666 285.888V317.856H566.386V314.208H558.13V310.56H566.386V285.888H571.666ZM535.954 304.896C543.73 304.848 554.242 304.752 563.218 303.648L563.506 307.392C560.05 307.968 556.402 308.352 552.85 308.592V316.704H547.666V308.88C543.682 309.024 539.89 309.024 536.53 309.024L535.954 304.896ZM539.122 294.912C539.17 290.4 543.442 287.376 549.778 287.424C555.922 287.376 560.242 290.4 560.242 294.912C560.242 299.424 555.922 302.352 549.778 302.304C543.49 302.352 539.17 299.424 539.122 294.912ZM541.522 327.36V314.784H546.802V323.136H572.626V327.36H541.522ZM544.114 294.912C544.066 297.216 546.37 298.512 549.778 298.56C552.994 298.512 555.298 297.216 555.346 294.912C555.298 292.608 552.994 291.216 549.778 291.264C546.37 291.216 544.066 292.608 544.114 294.912ZM101.768 352.792V395.128H96.488V352.792H101.768ZM66.728 383.512C77.768 378.232 82.904 371.08 83.864 361.432H68.84V357.304H89.192C89.144 369.928 84.248 380.632 69.416 387.64L66.728 383.512ZM133.94 356.152V359.992H108.884V356.152H118.772V352.504H124.052V356.152H133.94ZM107.636 376.312C110.996 376.312 114.788 376.312 118.772 376.216V373.72C113.972 373.096 110.996 370.888 110.996 367.576C110.996 363.688 115.124 361.192 121.46 361.24C127.652 361.192 131.876 363.688 131.924 367.576C131.876 370.888 128.804 373.144 124.052 373.72V376.024C127.604 375.832 131.156 375.592 134.516 375.16L134.9 378.712C125.828 380.2 115.844 380.344 108.308 380.344L107.636 376.312ZM113.588 387.16V383.128H142.772V395.128H137.492V387.16H113.588ZM115.988 367.576C115.988 369.352 118.148 370.36 121.46 370.36C124.676 370.36 126.884 369.352 126.932 367.576C126.884 365.752 124.676 364.744 121.46 364.696C118.148 364.744 115.988 365.752 115.988 367.576ZM137.492 381.4V352.888H142.772V381.4H137.492ZM168.91 352.312V395.8H163.342V352.312H168.91ZM202.804 375.544V382.36C206.5 382.168 210.244 381.832 213.748 381.304L214.132 385.144C204.628 386.92 194.5 386.968 186.964 386.968L186.388 382.744C189.652 382.744 193.54 382.696 197.62 382.552V375.544H202.804ZM187.348 372.856C193.732 371.176 197.236 366.952 197.524 362.2H188.596V357.976H197.62V353.176H202.804V357.976H212.02V362.2H202.9C203.188 366.712 206.836 370.84 213.172 372.472L210.772 376.504C205.78 375.16 202.18 372.232 200.26 368.44C198.436 372.424 194.884 375.496 189.844 376.888L187.348 372.856ZM216.244 395.224V352.792H221.428V395.224H216.244ZM265.793 374.68V378.808H227.201V374.68H265.793ZM231.137 362.776C231.185 357.4 237.185 354.136 246.497 354.136C255.665 354.136 261.665 357.4 261.665 362.776C261.665 368.104 255.665 371.416 246.497 371.416C237.185 371.416 231.185 368.104 231.137 362.776ZM231.905 394.36V381.976H237.185V390.136H261.377V394.36H231.905ZM236.609 362.776C236.561 365.608 240.257 367.144 246.497 367.192C252.593 367.144 256.337 365.608 256.289 362.776C256.337 359.944 252.593 358.312 246.497 358.264C240.257 358.312 236.561 359.944 236.609 362.776ZM306.797 374.296V378.424H268.205V374.296H284.813V369.784H289.997V374.296H306.797ZM270.029 367.864C278.765 367.24 283.757 364.36 284.429 360.856H271.949V356.728H284.813V352.888H289.997V356.728H302.957V360.856H290.381C291.053 364.36 296.093 367.24 304.877 367.864L303.245 371.8C295.709 371.224 290.093 368.872 287.453 365.176C284.765 368.872 279.149 371.224 271.565 371.8L270.029 367.864ZM272.621 388.024C272.669 383.368 278.141 380.824 287.405 380.824C296.669 380.824 302.093 383.368 302.093 388.024C302.093 392.584 296.669 395.128 287.405 395.128C278.141 395.128 272.669 392.584 272.621 388.024ZM277.997 388.024C277.949 390.136 281.213 391.24 287.405 391.192C293.549 391.24 296.861 390.136 296.909 388.024C296.861 385.816 293.549 384.712 287.405 384.76C281.213 384.712 277.949 385.816 277.997 388.024ZM90.152 424.632V428.856H66.44V424.632H75.944V420.408H81.128V424.632H90.152ZM68.744 437.976C68.696 433.416 72.728 430.344 78.536 430.296C84.296 430.344 88.424 433.416 88.424 437.976C88.424 442.584 84.296 445.656 78.536 445.656C72.728 445.656 68.696 442.584 68.744 437.976ZM73.544 437.976C73.544 440.376 75.512 441.816 78.536 441.816C81.512 441.816 83.576 440.376 83.624 437.976C83.576 435.672 81.512 434.232 78.536 434.232C75.512 434.232 73.544 435.672 73.544 437.976ZM73.64 462.648V447.576H78.92V451.224H96.68V447.576H101.864V462.648H73.64ZM78.92 458.616H96.68V455.064H78.92V458.616ZM90.344 442.68V438.456H96.68V434.328H90.44V430.104H96.68V420.792H101.864V445.944H96.68V442.68H90.344ZM127.604 423.288V436.056H114.26V441.336C121.076 441.288 124.964 441.096 129.524 440.28L130.004 444.504C124.964 445.32 120.548 445.464 112.244 445.464H109.076V432.216H122.42V427.416H109.076V423.288H127.604ZM113.972 453.144V448.92H142.868V463.224H137.684V453.144H113.972ZM130.196 439.896V435.768H137.684V430.968H130.196V426.84H137.684V420.888H142.868V446.904H137.684V439.896H130.196ZM168.91 420.312V463.8H163.342V420.312H168.91ZM205.492 423.192C214.516 423.192 221.236 427.752 221.236 434.616C221.236 441 215.716 445.224 207.988 445.992V453.72H224.884V458.04H186.196V453.72H202.9V445.992C195.172 445.176 189.7 441 189.748 434.616C189.7 427.752 196.42 423.192 205.492 423.192ZM194.836 434.616C194.788 439.224 199.252 441.912 205.492 441.912C211.684 441.912 216.1 439.224 216.148 434.616C216.1 430.2 211.684 427.368 205.492 427.416C199.252 427.368 194.788 430.2 194.836 434.616ZM240.449 431.928C240.401 438.744 242.753 445.896 248.513 449.496L245.633 453.528C241.793 451.224 239.345 447.24 237.953 442.584C236.417 447.672 233.681 451.992 229.697 454.392L226.529 450.552C232.625 446.808 235.361 439.368 235.361 432.12V424.536H240.449V431.928ZM244.001 439.704V435.384H250.049V421.56H254.945V461.112H250.049V439.704H244.001ZM258.689 463.128V420.792H263.681V463.128H258.689ZM284.237 429.432C284.237 434.712 287.837 439.848 294.605 441.912L291.917 446.04C287.117 444.456 283.613 441.288 281.693 437.256C279.821 441.624 276.221 445.128 271.181 446.808L268.493 442.68C275.309 440.472 278.957 435 278.957 429.432V428.184H269.837V424.056H293.165V428.184H284.237V429.432ZM275.405 462.36V448.728H280.685V458.136H304.589V462.36H275.405ZM298.253 451.608V420.888H303.437V451.608H298.253Z" fill="black"/>
<path d="M81.608 535.472C81.608 540.608 84.968 545.504 91.592 547.568L89.096 551.6C84.344 550.112 80.984 547.088 79.112 543.296C77.192 547.76 73.64 551.264 68.552 552.944L65.96 548.816C72.776 546.608 76.328 541.136 76.328 535.472V534.992H67.4V530.768H90.44V534.992H81.608V535.472ZM71.72 562.064C71.72 556.976 77.192 554 86.024 554C94.856 554 100.232 556.976 100.232 562.064C100.232 567.104 94.856 570.128 86.024 570.128C77.192 570.128 71.72 567.104 71.72 562.064ZM76.904 562.064C76.904 564.656 80.216 566.048 86.024 566C91.832 566.048 95.096 564.656 95.144 562.064C95.096 559.472 91.832 558.08 86.024 558.128C80.216 558.08 76.904 559.472 76.904 562.064ZM94.568 553.04V527.792H99.848V537.968H105.8V542.288H99.848V553.04H94.568ZM146.132 560.72V564.944H107.444V560.72H123.956V550.928H129.14V560.72H146.132ZM108.5 547.664C117.428 546.224 123.716 539.84 123.764 533.456V530.384H129.332V533.456C129.284 539.888 135.716 546.224 144.596 547.664L142.388 551.984C135.236 550.592 129.38 546.512 126.548 540.992C123.716 546.464 117.908 550.64 110.804 551.984L108.5 547.664ZM168.91 527.312V570.8H163.342V527.312H168.91ZM201.364 532.016V566H195.22V537.968H195.028L187.06 543.056V537.488L195.508 532.016H201.364ZM221.621 566.48C213.413 566.48 208.565 560.144 208.565 549.008C208.565 537.968 213.461 531.584 221.621 531.632C229.733 531.584 234.629 537.968 234.677 549.008C234.629 560.144 229.733 566.48 221.621 566.48ZM214.709 549.008C214.709 557.168 217.349 561.344 221.621 561.296C225.845 561.344 228.485 557.168 228.437 549.008C228.485 540.944 225.845 536.672 221.621 536.624C217.349 536.672 214.709 540.944 214.709 549.008ZM251.558 530.768C258.278 530.72 263.174 534.944 263.174 540.944C263.174 546.992 258.278 551.216 251.558 551.216C244.886 551.216 239.894 546.992 239.942 540.944C239.894 534.944 244.886 530.72 251.558 530.768ZM238.022 557.072C245.654 557.072 256.214 556.976 265.382 555.728L265.766 559.472C256.262 561.296 246.134 561.344 238.598 561.392L238.022 557.072ZM245.03 540.944C245.03 544.496 247.814 546.704 251.558 546.704C255.302 546.704 258.086 544.496 258.086 540.944C258.086 537.44 255.302 535.232 251.558 535.28C247.814 535.232 245.03 537.44 245.03 540.944ZM267.878 570.224V527.792H273.062V570.224H267.878ZM297.184 551.12V566H291.232V540.56H296.896V544.88H297.28C298.432 542 301.024 540.224 304.864 540.176C310.096 540.224 313.552 543.68 313.504 549.776V566H307.552V550.736C307.6 547.28 305.728 545.264 302.56 545.264C299.44 545.264 297.184 547.376 297.184 551.12ZM339.327 530.096C339.279 534.8 345.135 539.696 353.823 540.752L351.903 544.88C344.943 543.872 339.375 540.656 336.639 536.288C333.903 540.704 328.335 543.872 321.279 544.88L319.263 540.752C328.095 539.696 333.903 534.896 333.951 530.096V528.464H339.327V530.096ZM317.343 551.696V547.568H355.935V551.696H317.343ZM321.759 562.544C321.807 557.6 327.327 554.912 336.543 554.96C345.711 554.912 351.231 557.6 351.231 562.544C351.231 567.392 345.711 570.176 336.543 570.224C327.327 570.176 321.807 567.392 321.759 562.544ZM327.135 562.544C327.087 564.944 330.399 566.144 336.543 566.096C342.639 566.144 345.999 564.944 346.047 562.544C345.999 560.096 342.639 558.896 336.543 558.896C330.399 558.896 327.087 560.096 327.135 562.544ZM361.324 552.176C361.276 543.872 363.484 537.008 367.852 531.056H373.42C370.108 535.472 367.468 544.304 367.468 552.176C367.468 560 370.108 568.832 373.42 573.2H367.852C363.484 567.296 361.276 560.432 361.324 552.176ZM391.469 537.968C391.421 545.84 395.213 553.568 401.933 556.592L398.765 560.72C394.013 558.368 390.653 553.904 388.829 548.384C387.005 554.192 383.549 559.04 378.701 561.488L375.341 557.264C382.253 554.048 386.093 545.888 386.189 537.968V531.248H391.469V537.968ZM397.229 545.744V541.52H406.157V527.792H411.341V570.224H406.157V545.744H397.229ZM436.121 528.272C445.721 528.224 451.289 530.816 451.289 535.472C451.289 540.224 445.721 542.768 436.121 542.768C426.425 542.768 420.809 540.224 420.761 535.472C420.809 530.816 426.425 528.224 436.121 528.272ZM416.825 549.104V544.976H455.417V549.104H438.617V552.272H450.617V562.64H426.521V565.808H451.769V569.84H421.337V558.992H445.433V556.208H421.337V552.272H433.433V549.104H416.825ZM426.233 535.472C426.233 537.824 429.593 538.928 436.121 538.928C442.601 538.928 445.961 537.824 445.913 535.472C445.961 533.312 442.601 532.112 436.121 532.112C429.593 532.112 426.233 533.312 426.233 535.472ZM484.435 537.968C484.387 545.84 488.179 553.568 494.899 556.592L491.731 560.72C486.979 558.368 483.619 553.904 481.795 548.384C479.971 554.192 476.515 559.04 471.667 561.488L468.307 557.264C475.219 554.048 479.059 545.888 479.155 537.968V531.248H484.435V537.968ZM490.195 545.744V541.52H499.123V527.792H504.307V570.224H499.123V545.744H490.195ZM546.175 527.792V570.128H541.279V548.624H536.479V568.016H531.679V528.656H536.479V544.4H541.279V527.792H546.175ZM511.039 560.24V532.784H526.879V537.008H516.319V555.872C520.927 555.824 524.719 555.584 528.991 554.768L529.375 559.088C524.287 560.096 519.823 560.24 513.919 560.24H511.039ZM589.484 549.008V553.136H573.068V560.912H567.884V553.136H550.7V549.008H589.484ZM555.404 569.36V557.072H560.588V565.136H585.164V569.36H555.404ZM555.596 545.072V529.712H584.492V545.072H555.596ZM560.684 540.944H579.308V533.84H560.684V540.944ZM625.688 530.384V534.128C625.64 538.112 625.64 542.48 624.488 548.432H630.392V552.656H613.496V570.224H608.312V552.656H591.8V548.432H619.208C620.408 542.672 620.456 538.4 620.504 534.608H596.312V530.384H625.688ZM662.962 556.976C672.322 557.024 677.65 559.328 677.65 563.6C677.65 567.872 672.322 570.128 662.962 570.128C653.506 570.128 648.226 567.872 648.178 563.6C648.226 559.328 653.506 557.024 662.962 556.976ZM643.762 555.056V550.928H660.37V548.384C653.026 548 648.946 545.984 648.946 542.48C648.946 538.4 654.034 536.336 663.058 536.336C672.082 536.336 677.074 538.4 677.074 542.48C677.074 545.984 673.042 548.048 665.65 548.384V550.928H682.354V555.056H643.762ZM645.682 534.992V531.056H660.37V527.408H665.65V531.056H680.242V534.992H645.682ZM653.554 563.6C653.554 565.472 656.674 566.336 662.962 566.288C669.25 566.336 672.37 565.472 672.37 563.6C672.37 561.776 669.25 560.816 662.962 560.816C656.674 560.816 653.554 561.776 653.554 563.6ZM654.514 542.48C654.514 544.064 657.394 544.88 663.058 544.88C668.674 544.88 671.506 544.064 671.506 542.48C671.506 540.704 668.674 539.888 663.058 539.888C657.394 539.888 654.514 540.704 654.514 542.48ZM720.19 527.888V558.896H715.006V548.432H704.926C702.91 550.688 699.886 552.08 696.478 552.08C690.094 552.08 685.294 547.52 685.342 541.232C685.294 534.944 690.094 530.384 696.478 530.384C699.886 530.384 702.91 531.776 704.926 534.032H715.006V527.888H720.19ZM690.238 541.232C690.286 545.024 692.878 547.424 696.478 547.472C699.982 547.424 702.622 545.024 702.622 541.232C702.622 537.44 699.982 535.04 696.478 534.992C692.878 535.04 690.286 537.44 690.238 541.232ZM692.446 569.36V555.728H697.63V565.136H721.246V569.36H692.446ZM707.23 544.208H715.006V538.256H707.23C707.47 539.168 707.614 540.176 707.614 541.232C707.614 542.288 707.47 543.296 707.23 544.208ZM761.003 527.792V549.2H755.819V527.792H761.003ZM726.347 545.84C736.907 543.824 741.851 539.408 742.475 533.744H728.651V529.52H748.235C748.187 540.896 741.323 547.328 728.267 550.064L726.347 545.84ZM732.875 555.056V551.024H761.003V562.064H738.251V565.616H762.251V569.744H732.971V558.224H755.723V555.056H732.875ZM791.844 566.48C785.172 566.432 778.548 562.496 778.596 549.968C778.596 538.352 783.876 531.584 792.228 531.632C798.708 531.584 803.22 535.712 803.94 541.232H797.988C797.316 538.592 795.252 536.864 792.228 536.912C787.236 536.864 784.5 541.232 784.548 548.432H784.836C786.564 545.456 789.828 543.728 793.572 543.728C799.62 543.728 804.324 548.336 804.324 554.768C804.324 561.488 799.332 566.528 791.844 566.48ZM785.22 554.96C785.172 558.464 787.956 561.536 791.844 561.488C795.588 561.536 798.42 558.608 798.372 554.864C798.42 551.264 795.684 548.384 791.844 548.336C788.1 548.384 785.22 551.408 785.22 554.96ZM809.114 566L809.018 561.584L821.018 550.064C824.474 546.608 826.25 544.592 826.298 541.712C826.25 538.544 823.754 536.576 820.442 536.528C816.938 536.576 814.682 538.736 814.682 542.192H808.922C808.874 535.76 813.722 531.584 820.538 531.632C827.402 531.584 832.106 535.712 832.154 541.424C832.106 545.264 830.234 548.384 823.61 554.672L817.562 560.624V560.912H832.634V566H809.114ZM862.291 530.48L851.347 571.088H846.163L857.107 530.48H862.291ZM876.148 566L876.052 561.584L888.052 550.064C891.508 546.608 893.284 544.592 893.332 541.712C893.284 538.544 890.788 536.576 887.476 536.528C883.972 536.576 881.716 538.736 881.716 542.192H875.956C875.908 535.76 880.756 531.584 887.572 531.632C894.436 531.584 899.14 535.712 899.188 541.424C899.14 545.264 897.268 548.384 890.644 554.672L884.596 560.624V560.912H899.668V566H876.148ZM939.87 533.456V537.68H904.83V533.456H919.71V528.368H924.894V533.456H939.87ZM903.102 565.616V561.392H919.71V556.208C912.414 555.632 907.998 552.656 907.998 548.048C907.998 542.864 913.47 539.84 922.302 539.888C931.038 539.84 936.606 542.864 936.606 548.048C936.606 552.656 932.142 555.584 924.894 556.208V561.392H941.79V565.616H903.102ZM913.374 548.048C913.326 550.736 916.59 552.08 922.302 552.08C927.966 552.08 931.23 550.736 931.23 548.048C931.23 545.312 927.966 543.968 922.302 543.92C916.59 543.968 913.326 545.312 913.374 548.048ZM956.203 552.08C956.251 560.384 954.043 567.248 949.675 573.2H944.107C947.419 568.784 950.059 559.952 950.059 552.08C950.059 544.256 947.419 535.424 944.107 531.056H949.675C954.043 536.96 956.251 543.824 956.203 552.08ZM105.128 627.72V632.04H66.44V627.72H105.128ZM69.608 602.952V598.728H101.768V602.952H95.528V616.392H101.576V620.52H69.704V616.392H75.752V602.952H69.608ZM80.936 616.392H90.44V602.952H80.936V616.392ZM146.132 627.912V632.232H107.444V627.912H124.148V621H112.052V607.176H136.436V601.896H111.956V597.672H141.524V611.304H117.236V616.776H142.484V621H129.236V627.912H146.132ZM176.289 595.656V620.328H171.297V609.672H166.017V605.448H171.297V595.656H176.289ZM148.065 616.008C153.777 613.752 156.417 608.712 156.417 603.912V602.184H149.313V598.056H168.225V602.184H161.505V603.912C161.505 608.424 164.001 613.032 169.473 615.144L166.785 619.176C163.041 617.688 160.497 615 159.057 611.736C157.521 615.384 154.833 618.408 150.849 620.04L148.065 616.008ZM155.649 626.472V622.248H184.641V637.128H179.457V626.472H155.649ZM179.745 620.616V594.792H184.641V620.616H179.745ZM223.821 616.968V621.192H194.157V598.152H223.533V602.376H199.437V607.464H222.477V611.592H199.437V616.968H223.821ZM189.453 632.04V627.72H228.141V632.04H189.453ZM264.167 597.288V601.512H248.999V605.448H263.015V609.48H248.999V613.704C256.919 613.704 261.767 613.56 267.335 612.648L267.815 616.68C261.767 617.736 256.487 617.88 247.367 617.832H243.719V597.288H264.167ZM248.519 636.648V621.864H276.647V636.648H248.519ZM253.703 632.424H271.559V625.896H253.703V632.424ZM271.463 620.04V594.888H276.647V620.04H271.463ZM302.881 594.312V637.8H297.313V594.312H302.881ZM331.495 597.864C337.879 597.912 342.487 603.72 342.535 612.84C342.487 622.056 337.879 627.864 331.495 627.816C325.111 627.864 320.455 622.056 320.551 612.84C320.455 603.72 325.111 597.912 331.495 597.864ZM325.543 612.84C325.495 619.368 327.943 623.16 331.495 623.112C335.143 623.16 337.495 619.368 337.543 612.84C337.495 606.408 335.143 602.568 331.495 602.568C327.943 602.568 325.495 606.408 325.543 612.84ZM348.103 637.128V594.792H353.287V611.112H359.815V615.432H353.287V637.128H348.103ZM394.291 594.792V610.92H400.819V615.336H394.291V637.128H389.107V594.792H394.291ZM362.611 627.24V598.248H367.795V608.808H377.779V598.248H382.963V627.24H362.611ZM367.795 622.92H377.779V612.936H367.795V622.92ZM423.872 598.44V602.664H409.184V610.248H423.104V614.376H409.184V623.112C415.712 623.064 420.8 622.824 426.656 621.864L427.136 626.088C420.656 627.096 414.992 627.336 407.36 627.336H403.904V598.44H423.872ZM430.112 637.128V594.792H435.296V611.208H441.824V615.528H435.296V637.128H430.112ZM460.09 633H453.658L465.562 599.016H473.146L485.05 633H478.522L475.738 624.648H462.922L460.09 633ZM464.602 619.656H474.058L469.498 606.024H469.21L464.602 619.656ZM488.714 633V599.016H501.674C509.018 599.064 512.666 602.808 512.714 607.848C512.666 611.976 510.074 614.28 506.762 615.048V615.432C510.362 615.624 514.01 618.6 513.962 623.784C514.01 629.064 510.17 633 502.442 633H488.714ZM494.762 627.912H501.482C505.946 627.912 507.818 625.992 507.818 623.304C507.818 620.232 505.418 617.928 501.674 617.928H494.762V627.912ZM494.762 613.512H500.906C504.122 613.512 506.57 611.64 506.57 608.616C506.57 606.024 504.698 604.104 501.098 604.104H494.762V613.512ZM516.932 604.2V599.016H544.004V604.2H533.54V633H527.492V604.2H516.932ZM575.594 628.296C571.226 628.296 567.866 624.84 567.818 618.696C567.866 612.408 571.37 609.096 575.594 609.096C578.57 609.096 580.106 610.92 580.682 612.264H580.97V609.576H585.482V622.056C585.53 623.64 586.202 624.408 587.402 624.36C589.85 624.408 591.386 621.624 591.434 617.448C591.434 609.288 585.674 603.912 577.13 603.912C568.442 603.96 562.874 610.248 562.826 618.696C562.826 627.72 567.722 633.48 577.034 633.384C580.346 633.384 582.842 633.144 585.482 632.424V636.744C582.986 637.464 580.106 637.896 577.034 637.896C565.274 637.896 558.41 630.408 558.41 618.696C558.362 607.56 566.138 599.496 577.13 599.496C588.218 599.496 595.898 607.032 595.85 617.256C595.898 624.408 592.298 628.488 587.018 628.488C583.946 628.488 581.594 627 581.162 624.936H580.874C580.298 626.232 578.714 628.296 575.594 628.296ZM573.002 618.6C572.954 621.768 574.394 623.976 577.034 623.976C579.626 623.976 581.018 621.864 581.066 618.6C581.018 615.432 579.626 613.368 577.034 613.32C574.394 613.368 572.954 615.576 573.002 618.6ZM599.4 625.896C599.352 620.088 604.104 618.456 608.808 618.12C610.632 617.976 614.28 617.832 615.336 617.784V615.72C615.336 613.224 613.704 611.784 610.728 611.784C608.088 611.784 606.456 612.984 606.024 614.76H600.168C600.648 610.488 604.536 607.224 610.92 607.176C615.72 607.224 621.288 609.192 621.288 616.008V633H615.528V629.544H615.336C614.28 631.608 611.88 633.528 607.848 633.48C603.048 633.528 599.352 630.84 599.4 625.896ZM605.16 625.8C605.112 627.96 606.936 629.112 609.384 629.16C613.08 629.112 615.384 626.712 615.336 623.88V621.768C614.184 621.816 610.968 622.008 609.768 622.152C606.936 622.344 605.112 623.544 605.16 625.8ZM626.463 633V607.56H632.223V611.784H632.511C633.423 608.856 635.871 607.176 638.751 607.176C639.471 607.176 640.431 607.224 640.959 607.368V612.84C640.431 612.648 639.183 612.504 638.175 612.456C634.863 612.504 632.415 614.76 632.415 618.024V633H626.463ZM658.108 607.56V612.168H653.116V625.32C653.116 627.816 654.316 628.296 655.804 628.296C656.524 628.344 657.676 628.248 658.492 628.2V633.096C657.724 633.24 656.572 633.336 655.036 633.384C650.572 633.336 647.116 631.128 647.164 626.376V612.168H643.516V607.56H647.164V601.416H653.116V607.56H658.108ZM665.901 633.384C663.933 633.384 662.253 631.752 662.253 629.736C662.253 627.768 663.933 626.136 665.901 626.088C667.869 626.136 669.549 627.768 669.549 629.736C669.549 631.752 667.869 633.384 665.901 633.384ZM675.139 633V599.016H681.091V611.688H681.379C682.291 609.912 684.115 607.224 688.579 607.176C694.483 607.224 699.139 611.832 699.139 620.328C699.139 628.68 694.627 633.432 688.675 633.48C684.259 633.432 682.291 630.84 681.379 628.968H680.995V633H675.139ZM680.995 620.232C680.947 625.224 683.155 628.536 686.947 628.584C690.931 628.536 693.043 625.08 693.091 620.232C693.043 615.528 690.979 612.12 686.947 612.072C683.107 612.12 680.947 615.336 680.995 620.232ZM714.476 633.48C706.988 633.528 702.236 628.248 702.284 620.424C702.236 612.456 706.988 607.224 714.476 607.176C721.868 607.224 726.62 612.456 726.668 620.424C726.62 628.248 721.868 633.528 714.476 633.48ZM708.332 620.328C708.284 625.032 710.348 628.728 714.476 628.68C718.556 628.728 720.572 625.032 720.62 620.328C720.572 615.672 718.556 611.928 714.476 611.976C710.348 611.928 708.284 615.672 708.332 620.328ZM740.301 633.48C734.253 633.432 729.741 628.68 729.741 620.328C729.741 611.832 734.397 607.224 740.301 607.176C744.765 607.224 746.637 609.912 747.597 611.688H747.789V599.016H753.741V633H747.885V628.968H747.597C746.589 630.84 744.621 633.432 740.301 633.48ZM735.885 620.232C735.837 625.08 737.949 628.536 741.933 628.584C745.725 628.536 747.933 625.224 747.885 620.232C747.933 615.336 745.773 612.12 741.933 612.072C737.901 612.12 735.837 615.528 735.885 620.232ZM762.838 642.504C761.686 642.552 760.534 642.504 759.766 642.408V637.608C760.486 637.704 761.542 637.704 762.262 637.704C763.75 637.704 764.998 637.608 766.006 634.92L766.486 633.576L757.27 607.56H763.606L769.462 626.76H769.75L775.702 607.56H782.038L771.766 636.072C770.326 640.152 767.638 642.552 762.838 642.504ZM787.345 633.384C785.377 633.384 783.697 631.752 783.697 629.736C783.697 627.768 785.377 626.136 787.345 626.088C789.313 626.136 790.993 627.768 790.993 629.736C790.993 631.752 789.313 633.384 787.345 633.384ZM808.967 607.56V612.168H803.975V625.32C803.975 627.816 805.175 628.296 806.663 628.296C807.383 628.344 808.535 628.248 809.351 628.2V633.096C808.583 633.24 807.431 633.336 805.895 633.384C801.431 633.336 797.975 631.128 798.023 626.376V612.168H794.375V607.56H798.023V601.416H803.975V607.56H808.967ZM824.063 633.48C816.431 633.528 811.727 628.392 811.775 620.424C811.727 612.552 816.527 607.224 823.775 607.176C830.015 607.224 835.391 611.112 835.391 620.04V621.96H817.631C817.775 626.328 820.271 628.872 824.159 628.872C826.799 628.872 828.527 627.72 829.343 626.184H835.199C834.095 630.6 830.015 633.528 824.063 633.48ZM817.631 617.832H829.631C829.631 614.424 827.327 611.88 823.871 611.88C820.271 611.88 817.871 614.568 817.631 617.832ZM850.768 633.48C843.136 633.528 838.528 628.056 838.576 620.424C838.528 612.6 843.28 607.224 850.672 607.176C856.912 607.224 861.232 610.824 861.616 616.296H855.952C855.472 613.896 853.696 612.024 850.768 611.976C847.072 612.024 844.576 615.144 844.624 620.232C844.576 625.512 847.024 628.632 850.768 628.584C853.408 628.632 855.376 627.096 855.952 624.36H861.616C861.184 629.688 857.104 633.528 850.768 633.48ZM871.588 618.12V633H865.636V599.016H871.492V611.88H871.78C872.98 609 875.428 607.224 879.364 607.176C884.644 607.224 888.1 610.632 888.1 616.776V633H882.148V617.736C882.148 614.28 880.276 612.264 877.156 612.264C873.892 612.264 871.588 614.376 871.588 618.12Z" fill="black"/>
<path d="M105.032 726.408V730.632H88.232V745.128H83.048V730.632H66.44V726.408H105.032ZM68.456 719.496C76.712 718.44 82.28 714.024 82.712 709.32H69.992V705.192H101.48V709.32H88.76C89.144 714.024 94.664 718.44 103.016 719.496L101.096 723.624C93.896 722.568 88.28 719.256 85.736 714.648C83.144 719.256 77.528 722.568 70.376 723.624L68.456 719.496ZM124.052 725.544V732.36C127.748 732.168 131.492 731.832 134.996 731.304L135.38 735.144C125.876 736.92 115.748 736.968 108.212 736.968L107.636 732.744C110.9 732.744 114.788 732.696 118.868 732.552V725.544H124.052ZM108.596 722.856C114.98 721.176 118.484 716.952 118.772 712.2H109.844V707.976H118.868V703.176H124.052V707.976H133.268V712.2H124.148C124.436 716.712 128.084 720.84 134.42 722.472L132.02 726.504C127.028 725.16 123.428 722.232 121.508 718.44C119.684 722.424 116.132 725.496 111.092 726.888L108.596 722.856ZM137.492 745.224V702.792H142.676V745.224H137.492ZM174.67 705.48L163.726 746.088H158.542L169.486 705.48H174.67ZM225.679 726.408V730.632H208.879V745.128H203.695V730.632H187.087V726.408H225.679ZM189.103 719.496C197.359 718.44 202.927 714.024 203.359 709.32H190.639V705.192H222.127V709.32H209.407C209.791 714.024 215.311 718.44 223.663 719.496L221.743 723.624C214.543 722.568 208.927 719.256 206.383 714.648C203.791 719.256 198.175 722.568 191.023 723.624L189.103 719.496ZM251.707 705.96V708.456C251.659 711.336 251.659 715.56 250.651 720.936L245.563 720.456C246.379 716.04 246.523 712.776 246.571 710.184H230.107V705.96H251.707ZM227.611 724.296C230.107 724.296 232.891 724.248 235.867 724.2V715.56H241.051V724.008C245.419 723.864 249.931 723.528 254.011 722.952L254.299 726.696C245.515 728.28 235.483 728.472 228.091 728.52L227.611 724.296ZM233.947 744.36V731.688H239.131V740.136H263.227V744.36H233.947ZM256.507 734.568V702.792H261.883V716.04H267.355V720.36H261.883V734.568H256.507ZM289.557 702.312V745.8H283.989V702.312H289.557ZM341.211 724.104V728.328H328.731V736.008H345.531V740.232H306.843V736.008H323.547V728.328H311.547V705.96H340.923V710.088H316.827V714.984H339.867V719.112H316.827V724.104H341.211ZM369.352 704.616V708.744H354.76V712.104H368.488V716.04H354.76V719.592C362.296 719.592 366.76 719.448 372.04 718.632L372.52 722.664C366.712 723.624 361.72 723.72 352.936 723.72H349.576V704.616H369.352ZM353.512 730.632V726.504H381.256V737.352H358.696V740.712H382.6V744.84H353.608V733.608H376.072V730.632H353.512ZM375.976 724.68V702.792H381.256V711.432H387.208V715.656H381.256V724.68H375.976ZM411.22 706.728V734.856H391.06V706.728H411.22ZM396.244 730.728H406.132V710.856H396.244V730.728ZM418.804 745.224V702.792H424.084V745.224H418.804ZM451.84 704.136C451.792 708.696 457.6 712.824 466.432 713.832L464.704 717.672C457.552 716.856 451.84 713.976 449.104 709.896C446.368 713.976 440.656 716.856 433.6 717.672L431.776 713.832C440.656 712.824 446.416 708.696 446.464 704.136V702.984H451.84V704.136ZM429.856 723.912V719.784H468.448V723.912H451.648V727.176H463.648V737.736H439.552V740.808H464.8V744.84H434.368V733.992H458.464V731.208H434.368V727.176H446.464V723.912H429.856ZM494.477 705.96V708.456C494.429 711.336 494.429 715.56 493.421 720.936L488.333 720.456C489.149 716.04 489.293 712.776 489.341 710.184H472.877V705.96H494.477ZM470.381 724.296C472.877 724.296 475.661 724.248 478.637 724.2V715.56H483.821V724.008C488.189 723.864 492.701 723.528 496.781 722.952L497.069 726.696C488.285 728.28 478.253 728.472 470.861 728.52L470.381 724.296ZM476.717 744.36V731.688H481.901V740.136H505.997V744.36H476.717ZM499.277 734.568V702.792H504.653V716.04H510.125V720.36H504.653V734.568H499.277ZM85.448 796.288C94.712 796.288 100.52 799.216 100.52 804.256C100.52 809.2 94.712 812.128 85.448 812.128C76.376 812.128 70.472 809.2 70.472 804.256C70.472 799.216 76.376 796.288 85.448 796.288ZM66.44 793.216V788.992H81.416V781.312H86.504V788.992H104.936V793.216H66.44ZM70.856 775.936V771.808H100.232V775.264C100.28 778.672 100.28 782.224 99.08 786.592L93.992 786.112C95 781.984 95.048 779.056 95.048 775.936H70.856ZM75.752 804.256C75.704 806.752 79.352 808.096 85.448 808.096C91.64 808.096 95.336 806.752 95.336 804.256C95.336 801.664 91.64 800.224 85.448 800.224C79.352 800.224 75.704 801.664 75.752 804.256ZM146.036 790.144V794.272H107.444V790.144H124.244V786.016H112.148V771.712H141.428V775.84H117.332V781.888H141.62V786.016H129.332V790.144H146.036ZM111.86 804.448C111.908 799.456 117.476 796.672 126.644 796.672C135.812 796.672 141.332 799.456 141.332 804.448C141.332 809.344 135.812 812.176 126.644 812.224C117.476 812.176 111.908 809.344 111.86 804.448ZM117.236 804.448C117.188 806.896 120.5 808.144 126.644 808.096C132.74 808.144 136.1 806.896 136.148 804.448C136.1 802 132.74 800.704 126.644 800.704C120.5 800.704 117.188 802 117.236 804.448ZM187.041 793.408V797.632H170.241V812.128H165.057V797.632H148.449V793.408H187.041ZM150.465 786.496C158.721 785.44 164.289 781.024 164.721 776.32H152.001V772.192H183.489V776.32H170.769C171.153 781.024 176.673 785.44 185.025 786.496L183.105 790.624C175.905 789.568 170.289 786.256 167.745 781.648C165.153 786.256 159.537 789.568 152.385 790.624L150.465 786.496ZM213.069 772.96V775.456C213.021 778.336 213.021 782.56 212.013 787.936L206.925 787.456C207.741 783.04 207.885 779.776 207.933 777.184H191.469V772.96H213.069ZM188.973 791.296C191.469 791.296 194.253 791.248 197.229 791.2V782.56H202.413V791.008C206.781 790.864 211.293 790.528 215.373 789.952L215.661 793.696C206.877 795.28 196.845 795.472 189.453 795.52L188.973 791.296ZM195.309 811.36V798.688H200.493V807.136H224.589V811.36H195.309ZM217.869 801.568V769.792H223.245V783.04H228.717V787.36H223.245V801.568H217.869ZM250.919 769.312V812.8H245.351V769.312H250.919ZM279.533 772.864C285.917 772.912 290.525 778.72 290.573 787.84C290.525 797.056 285.917 802.864 279.533 802.816C273.149 802.864 268.493 797.056 268.589 787.84C268.493 778.72 273.149 772.912 279.533 772.864ZM273.581 787.84C273.533 794.368 275.981 798.16 279.533 798.112C283.181 798.16 285.533 794.368 285.581 787.84C285.533 781.408 283.181 777.568 279.533 777.568C275.981 777.568 273.533 781.408 273.581 787.84ZM296.141 812.128V769.792H301.325V786.112H307.853V790.432H301.325V812.128H296.141ZM344.729 769.792V812.224H339.545V789.28H331.577V785.152H339.545V769.792H344.729ZM311.129 802.432V773.44H330.905V777.664H316.313V785.344H329.273V789.472H316.313V798.208C322.793 798.112 327.593 797.92 333.017 797.056L333.593 801.184C327.401 802.192 321.977 802.432 314.393 802.432H311.129ZM367.398 774.688V778.816H356.55V786.016H365.67V790.048H356.55V798.304C361.59 798.256 365.046 798.016 369.222 797.344L369.702 801.472C364.806 802.432 360.774 802.528 354.342 802.528H351.558V774.688H367.398ZM367.686 789.664V785.44H372.966V770.656H377.862V810.112H372.966V789.664H367.686ZM381.702 812.128V769.792H386.694V812.128H381.702ZM426.45 769.888V800.416H421.266V769.888H426.45ZM391.986 783.232C391.938 777.04 396.93 772.624 403.41 772.672C409.794 772.624 414.786 777.04 414.738 783.232C414.786 789.472 409.794 793.84 403.41 793.792C396.93 793.84 391.938 789.472 391.986 783.232ZM397.074 783.232C397.026 786.976 399.762 789.28 403.41 789.28C406.914 789.28 409.65 786.976 409.65 783.232C409.65 779.536 406.914 777.184 403.41 777.184C399.762 777.184 397.026 779.536 397.074 783.232ZM398.418 811.36V797.344H403.698V807.136H427.602V811.36H398.418ZM440.479 804.64L436.639 817.792H432.127L434.527 804.64H440.479ZM491.461 769.792V812.128H486.469V769.792H491.461ZM455.365 788.128C455.365 778.816 458.965 773.008 464.485 773.056C468.085 773.008 470.869 775.36 472.453 779.488H478.021V770.56H482.917V810.112H478.021V796.768H472.453C470.917 800.944 468.085 803.296 464.485 803.296C458.965 803.296 455.365 797.488 455.365 788.128ZM460.165 788.128C460.117 794.752 461.749 798.304 464.485 798.304C467.317 798.304 469.045 794.752 469.093 788.128C469.045 781.504 467.317 777.904 464.485 777.952C461.749 777.904 460.117 781.504 460.165 788.128ZM473.509 783.712C473.701 785.056 473.797 786.544 473.797 788.128C473.797 789.664 473.701 791.104 473.509 792.448H478.021V783.712H473.509ZM517.97 771.136C517.922 775.696 523.73 779.824 532.562 780.832L530.834 784.672C523.682 783.856 517.97 780.976 515.234 776.896C512.498 780.976 506.786 783.856 499.73 784.672L497.906 780.832C506.786 779.824 512.546 775.696 512.594 771.136V769.984H517.97V771.136ZM495.986 790.912V786.784H534.578V790.912H517.778V794.176H529.778V804.736H505.682V807.808H530.93V811.84H500.498V800.992H524.594V798.208H500.498V794.176H512.594V790.912H495.986ZM555.998 796.288C565.262 796.288 571.07 799.216 571.07 804.256C571.07 809.2 565.262 812.128 555.998 812.128C546.926 812.128 541.022 809.2 541.022 804.256C541.022 799.216 546.926 796.288 555.998 796.288ZM536.99 793.216V788.992H551.966V781.312H557.054V788.992H575.486V793.216H536.99ZM541.406 775.936V771.808H570.782V775.264C570.83 778.672 570.83 782.224 569.63 786.592L564.542 786.112C565.55 781.984 565.598 779.056 565.598 775.936H541.406ZM546.302 804.256C546.254 806.752 549.902 808.096 555.998 808.096C562.19 808.096 565.886 806.752 565.886 804.256C565.886 801.664 562.19 800.224 555.998 800.224C549.902 800.224 546.254 801.664 546.302 804.256ZM611.402 769.792V781.984H617.354V786.304H611.402V800.32H606.122V769.792H611.402ZM577.802 791.872C587.546 788.992 593.306 783.712 594.17 777.28H579.626V773.056H599.882C599.882 784.288 592.538 792.304 580.01 796L577.802 791.872ZM584.138 811.36V797.248H589.418V807.136H612.938V811.36H584.138ZM643.684 772.768C650.404 772.72 655.3 776.944 655.3 782.944C655.3 788.992 650.404 793.216 643.684 793.216C637.012 793.216 632.02 788.992 632.068 782.944C632.02 776.944 637.012 772.72 643.684 772.768ZM630.148 799.072C637.78 799.072 648.34 798.976 657.508 797.728L657.892 801.472C648.388 803.296 638.26 803.344 630.724 803.392L630.148 799.072ZM637.156 782.944C637.156 786.496 639.94 788.704 643.684 788.704C647.428 788.704 650.212 786.496 650.212 782.944C650.212 779.44 647.428 777.232 643.684 777.28C639.94 777.232 637.156 779.44 637.156 782.944ZM660.004 812.224V769.792H665.188V812.224H660.004ZM686.705 775.84C686.705 781.408 690.209 786.688 696.977 788.8L694.385 792.928C689.489 791.296 685.985 788.08 684.065 783.904C682.145 788.368 678.593 791.92 673.553 793.6L670.961 789.472C677.825 787.216 681.329 781.6 681.329 775.84V771.808H686.705V775.84ZM677.297 801.28V797.056H706.193V812.128H701.009V801.28H677.297ZM701.009 795.136V769.792H706.193V795.136H701.009ZM750.557 793.408V797.632H733.757V812.128H728.573V797.632H711.965V793.408H750.557ZM713.981 786.496C722.237 785.44 727.805 781.024 728.237 776.32H715.517V772.192H747.005V776.32H734.285C734.669 781.024 740.189 785.44 748.541 786.496L746.621 790.624C739.421 789.568 733.805 786.256 731.261 781.648C728.669 786.256 723.053 789.568 715.901 790.624L713.981 786.496ZM102.92 842.4V846.528H68.36V842.4H83.144V837.696H88.232V842.4H102.92ZM66.44 869.472V865.152H105.128V869.472H88.232V880.224H83.144V869.472H66.44ZM71.336 855.648C71.336 851.04 76.712 848.496 85.736 848.448C94.616 848.496 100.04 851.04 100.04 855.648C100.04 860.304 94.616 862.848 85.736 862.848C76.712 862.848 71.336 860.304 71.336 855.648ZM76.808 855.648C76.712 857.808 79.832 858.96 85.736 858.912C91.496 858.96 94.616 857.808 94.664 855.648C94.616 853.488 91.496 852.384 85.736 852.384C79.832 852.384 76.712 853.488 76.808 855.648ZM142.964 837.888V869.856H137.684V866.208H129.428V862.56H137.684V837.888H142.964ZM107.252 856.896C115.028 856.848 125.54 856.752 134.516 855.648L134.804 859.392C131.348 859.968 127.7 860.352 124.148 860.592V868.704H118.964V860.88C114.98 861.024 111.188 861.024 107.828 861.024L107.252 856.896ZM110.42 846.912C110.468 842.4 114.74 839.376 121.076 839.424C127.22 839.376 131.54 842.4 131.54 846.912C131.54 851.424 127.22 854.352 121.076 854.304C114.788 854.352 110.468 851.424 110.42 846.912ZM112.82 879.36V866.784H118.1V875.136H143.924V879.36H112.82ZM115.412 846.912C115.364 849.216 117.668 850.512 121.076 850.56C124.292 850.512 126.596 849.216 126.644 846.912C126.596 844.608 124.292 843.216 121.076 843.264C117.668 843.216 115.364 844.608 115.412 846.912ZM168.91 837.312V880.8H163.342V837.312H168.91ZM219.604 837.888V851.136H225.556V855.456H219.604V869.472H214.324V837.888H219.604ZM186.196 846.72V842.496H196.18V837.792H201.364V842.496H211.348V846.72H186.196ZM188.404 856.608C188.356 851.664 192.628 848.448 198.772 848.448C204.868 848.448 209.092 851.664 209.14 856.608C209.092 861.408 204.868 864.576 198.772 864.576C192.628 864.576 188.356 861.408 188.404 856.608ZM192.436 879.36V866.976H197.62V875.136H221.236V879.36H192.436ZM193.396 856.608C193.396 859.104 195.556 860.544 198.772 860.544C201.988 860.544 204.148 859.104 204.148 856.608C204.148 853.968 201.988 852.48 198.772 852.48C195.556 852.48 193.396 853.968 193.396 856.608ZM261.185 839.712V842.976C261.185 846.096 261.185 849.792 260.273 854.496H265.889V858.72H249.089V865.344H261.281V880.128H256.001V869.472H231.137V865.344H243.809V858.72H227.201V854.496H254.993C255.857 850.176 255.953 846.864 256.001 843.936H232.001V839.712H261.185ZM306.893 859.008V863.136H290.477V870.912H285.293V863.136H268.109V859.008H306.893ZM272.813 879.36V867.072H277.997V875.136H302.573V879.36H272.813ZM273.005 855.072V839.712H301.901V855.072H273.005ZM278.093 850.944H296.717V843.84H278.093V850.944ZM342.713 837.792V855.264H348.665V859.68H342.713V880.128H337.433V837.792H342.713ZM308.633 868.416C311.849 868.416 315.593 868.416 319.481 868.32V864.336C314.873 863.568 311.849 860.688 311.897 856.704C311.849 851.904 316.073 848.736 322.169 848.736C328.169 848.736 332.441 851.904 332.441 856.704C332.441 860.688 329.369 863.568 324.761 864.384V868.128C328.313 867.936 331.865 867.648 335.225 867.168L335.513 871.008C326.441 872.64 316.649 872.688 309.401 872.736L308.633 868.416ZM309.497 846.816V842.688H319.481V837.984H324.761V842.688H334.745V846.816H309.497ZM316.793 856.704C316.793 859.104 318.953 860.544 322.169 860.544C325.337 860.544 327.449 859.104 327.449 856.704C327.449 854.208 325.337 852.72 322.169 852.768C318.953 852.72 316.793 854.208 316.793 856.704ZM386.694 837.792V880.128H381.702V837.792H386.694ZM350.598 856.128C350.598 846.816 354.198 841.008 359.718 841.056C363.318 841.008 366.102 843.36 367.686 847.488H373.254V838.56H378.15V878.112H373.254V864.768H367.686C366.15 868.944 363.318 871.296 359.718 871.296C354.198 871.296 350.598 865.488 350.598 856.128ZM355.398 856.128C355.35 862.752 356.982 866.304 359.718 866.304C362.55 866.304 364.278 862.752 364.326 856.128C364.278 849.504 362.55 845.904 359.718 845.952C356.982 845.904 355.35 849.504 355.398 856.128ZM368.742 851.712C368.934 853.056 369.03 854.544 369.03 856.128C369.03 857.664 368.934 859.104 368.742 860.448H373.254V851.712H368.742ZM413.202 839.136C413.154 843.696 418.962 847.824 427.794 848.832L426.066 852.672C418.914 851.856 413.202 848.976 410.466 844.896C407.73 848.976 402.018 851.856 394.962 852.672L393.138 848.832C402.018 847.824 407.778 843.696 407.826 839.136V837.984H413.202V839.136ZM391.218 858.912V854.784H429.81V858.912H413.01V862.176H425.01V872.736H400.914V875.808H426.162V879.84H395.73V868.992H419.826V866.208H395.73V862.176H407.826V858.912H391.218ZM446.047 839.712C452.479 839.664 457.135 843.264 457.087 848.544C457.135 853.776 452.479 857.472 446.047 857.472C439.615 857.472 435.007 853.776 435.007 848.544C435.007 843.264 439.615 839.664 446.047 839.712ZM432.223 860.352C439.855 860.352 450.559 860.208 459.679 858.816L460.063 862.656C456.415 863.376 452.623 863.856 448.927 864.144V878.88H443.647V864.432C439.759 864.576 436.063 864.624 432.895 864.672L432.223 860.352ZM440.095 848.544C440.047 851.424 442.543 853.2 446.047 853.152C449.647 853.2 452.143 851.424 452.191 848.544C452.143 845.664 449.647 843.84 446.047 843.84C442.543 843.84 440.047 845.664 440.095 848.544ZM462.463 880.128V837.888H467.647V880.128H462.463ZM508.747 837.888V869.856H503.467V866.208H495.211V862.56H503.467V837.888H508.747ZM473.035 856.896C480.811 856.848 491.323 856.752 500.299 855.648L500.587 859.392C497.131 859.968 493.483 860.352 489.931 860.592V868.704H484.747V860.88C480.763 861.024 476.971 861.024 473.611 861.024L473.035 856.896ZM476.203 846.912C476.251 842.4 480.523 839.376 486.859 839.424C493.003 839.376 497.323 842.4 497.323 846.912C497.323 851.424 493.003 854.352 486.859 854.304C480.571 854.352 476.251 851.424 476.203 846.912ZM478.603 879.36V866.784H483.883V875.136H509.707V879.36H478.603ZM481.195 846.912C481.147 849.216 483.451 850.512 486.859 850.56C490.075 850.512 492.379 849.216 492.427 846.912C492.379 844.608 490.075 843.216 486.859 843.264C483.451 843.216 481.147 844.608 481.195 846.912ZM549.463 837.792V880.128H544.279V837.792H549.463ZM514.423 868.416C517.783 868.416 521.575 868.368 525.559 868.272V864.384C520.807 863.616 517.687 860.736 517.687 856.704C517.687 851.904 521.959 848.736 528.151 848.736C534.343 848.736 538.663 851.904 538.615 856.704C538.663 860.736 535.495 863.616 530.743 864.384V868.08C534.487 867.936 538.231 867.648 541.783 867.168L542.167 871.008C532.855 872.592 522.775 872.688 515.095 872.736L514.423 868.416ZM515.287 846.816V842.688H525.559V837.984H530.839V842.688H541.015V846.816H515.287ZM522.679 856.704C522.631 859.104 524.935 860.544 528.151 860.544C531.415 860.544 533.671 859.104 533.719 856.704C533.671 854.208 531.415 852.72 528.151 852.768C524.935 852.72 522.631 854.208 522.679 856.704Z" fill="black"/>
</g>
<defs>
<filter id="filter0_d_330_177" x="-35" y="0" width="1096" height="992" filterUnits="userSpaceOnUse" color-interpolation-filters="sRGB">
<feFlood flood-opacity="0" result="BackgroundImageFix"/>
<feColorMatrix in="SourceAlpha" type="matrix" values="0 0 0 0 0 0 0 0 0 0 0 0 0 0 0 0 0 0 127 0" result="hardAlpha"/>
<feOffset/>
<feGaussianBlur stdDeviation="50"/>
<feComposite in2="hardAlpha" operator="out"/>
<feColorMatrix type="matrix" values="0 0 0 0 1 0 0 0 0 1 0 0 0 0 1 0 0 0 1 0"/>
<feBlend mode="normal" in2="BackgroundImageFix" result="effect1_dropShadow_330_177"/>
<feBlend mode="normal" in="SourceGraphic" in2="effect1_dropShadow_330_177" result="shape"/>
</filter>
<clipPath id="clip0_330_177">
<rect width="133" height="133" fill="white" transform="translate(65 100)"/>
</clipPath>
</defs>
</svg>
