<svg width="65" height="1344" viewBox="0 0 65 1344" fill="none" xmlns="http://www.w3.org/2000/svg">
<path d="M55 1343.16L49.112 1343.29L33.752 1327.29C29.144 1322.68 26.456 1320.31 22.616 1320.25C18.392 1320.31 15.768 1323.64 15.704 1328.06C15.768 1332.73 18.648 1335.74 23.256 1335.74L23.256 1343.42C14.68 1343.48 9.112 1337.02 9.176 1327.93C9.112 1318.78 14.616 1312.5 22.232 1312.44C27.352 1312.5 31.512 1315 39.896 1323.83L47.832 1331.9L48.216 1331.9L48.216 1311.8L55 1311.8L55 1343.16ZM55.64 1288.02C55.64 1298.96 47.192 1305.43 32.344 1305.43C17.624 1305.43 9.112 1298.9 9.176 1288.02C9.112 1277.2 17.624 1270.68 32.344 1270.61C47.192 1270.68 55.64 1277.2 55.64 1288.02ZM32.344 1297.24C43.224 1297.24 48.792 1293.72 48.728 1288.02C48.792 1282.39 43.224 1278.87 32.344 1278.93C21.592 1278.87 15.896 1282.39 15.832 1288.02C15.896 1293.72 21.592 1297.24 32.344 1297.24ZM55 1263.85L49.112 1263.98L33.752 1247.98C29.144 1243.37 26.456 1241 22.616 1240.94C18.392 1241 15.768 1244.33 15.704 1248.74C15.768 1253.42 18.648 1256.42 23.256 1256.42L23.256 1264.1C14.68 1264.17 9.112 1257.7 9.176 1248.62C9.112 1239.46 14.616 1233.19 22.232 1233.13C27.352 1233.19 31.512 1235.69 39.896 1244.52L47.832 1252.58L48.216 1252.58L48.216 1232.49L55 1232.49L55 1263.85ZM55.64 1208.96C55.64 1218.63 50.392 1225.54 42.712 1225.73L42.712 1217.54C46.36 1217.35 48.792 1213.7 48.728 1208.96C48.792 1204.04 46.04 1200.45 42.072 1200.39C37.912 1200.45 35.032 1203.91 35.032 1209.86L35.032 1213.83L28.76 1213.83L28.76 1209.86C28.76 1205 26.072 1201.67 22.104 1201.67C18.328 1201.67 15.768 1204.55 15.704 1208.96C15.768 1213.19 18.136 1216.84 21.976 1217.03L21.976 1224.84C14.36 1224.64 9.112 1217.73 9.176 1208.84C9.112 1199.68 14.744 1193.73 21.72 1193.86C26.776 1193.73 30.424 1197.12 31.448 1202.05L31.832 1202.05C32.664 1195.65 36.76 1192.07 42.456 1192.07C50.072 1192.07 55.64 1199.24 55.64 1208.96ZM4.056 1138.19L60.504 1138.19L60.504 1144.85L4.056 1144.85L4.056 1138.19ZM28.504 1186.32C16.088 1186.32 8.344 1181.52 8.408 1174.16C8.344 1169.36 11.48 1165.65 16.984 1163.53L16.984 1156.11L5.08 1156.11L5.08 1149.58L57.816 1149.58L57.816 1156.11L40.024 1156.11L40.024 1163.53C45.592 1165.58 48.728 1169.36 48.728 1174.16C48.728 1181.52 40.984 1186.32 28.504 1186.32ZM28.504 1179.92C37.336 1179.98 42.072 1177.81 42.072 1174.16C42.072 1170.38 37.336 1168.08 28.504 1168.01C19.672 1168.08 14.872 1170.38 14.936 1174.16C14.872 1177.81 19.672 1179.98 28.504 1179.92ZM22.616 1162.13C24.408 1161.87 26.392 1161.74 28.504 1161.74C30.552 1161.74 32.472 1161.87 34.264 1162.13L34.264 1156.11L22.616 1156.11L22.616 1162.13ZM4.056 1084.54L60.632 1084.54L60.632 1091.58L4.056 1091.58L4.056 1084.54ZM47.32 1128.57L8.664 1128.57L8.664 1121.66L22.744 1121.66L22.744 1107.97L8.664 1107.97L8.664 1101.05L47.32 1101.05L47.32 1128.57ZM41.56 1121.66L41.56 1107.97L28.248 1107.97L28.248 1121.66L41.56 1121.66ZM4.056 1027.56L60.504 1027.56L60.504 1034.22L4.056 1034.22L4.056 1027.56ZM28.504 1075.69C16.088 1075.69 8.344 1070.89 8.408 1063.53C8.344 1058.73 11.48 1055.02 16.984 1052.91L16.984 1045.48L5.08 1045.48L5.08 1038.96L57.816 1038.96L57.816 1045.48L40.024 1045.48L40.024 1052.91C45.592 1054.96 48.728 1058.73 48.728 1063.53C48.728 1070.89 40.984 1075.69 28.504 1075.69ZM28.504 1069.29C37.336 1069.36 42.072 1067.18 42.072 1063.53C42.072 1059.76 37.336 1057.45 28.504 1057.39C19.672 1057.45 14.872 1059.76 14.936 1063.53C14.872 1067.18 19.672 1069.36 28.504 1069.29ZM22.616 1051.5C24.408 1051.24 26.392 1051.12 28.504 1051.12C30.552 1051.12 32.472 1051.24 34.264 1051.5L34.264 1045.48L22.616 1045.48L22.616 1051.5ZM5.848 991.58C11.928 991.644 17.432 983.9 18.776 972.124L23.896 974.428C22.808 983.964 18.968 991.58 13.528 995.228C18.968 998.876 22.808 1006.49 23.896 1015.9L18.776 1018.33C17.432 1006.49 11.928 998.812 5.848 998.748L4.312 998.748L4.312 991.58L5.848 991.58ZM32.216 1020.89L26.712 1020.89L26.712 969.436L32.216 969.436L32.216 991.836L36.568 991.836L36.568 975.836L50.648 975.836L50.648 1007.96L54.744 1007.96L54.744 974.3L60.12 974.3L60.12 1014.88L45.656 1014.88L45.656 982.748L41.944 982.748L41.944 1014.88L36.568 1014.88L36.568 998.748L32.216 998.748L32.216 1020.89ZM4.056 921.42L26.2 921.42L26.2 912.972L31.96 912.972L31.96 921.42L60.376 921.42L60.376 928.332L4.056 928.332L4.056 921.42ZM45.016 965.964C38.104 952.14 28.504 944.716 15.704 943.372L15.704 962.892L9.944 962.892L9.944 936.268C26.52 936.332 41.112 943.244 50.392 961.996L45.016 965.964ZM12.12 874.409C19.864 874.409 26.904 869.929 29.656 861.098L35.16 864.809C32.92 870.953 28.824 875.305 23.448 877.673C29.592 880.169 34.456 884.841 36.824 891.69L31.32 895.402C28.184 886.058 20.632 881.385 12.504 881.321L7.128 881.321L7.128 874.409L12.12 874.409ZM49.624 886.058C42.776 886.121 38.808 878.761 38.744 866.857C38.808 854.89 42.776 847.593 49.624 847.529C56.6 847.593 60.504 854.89 60.504 866.857C60.504 878.762 56.6 886.121 49.624 886.058ZM49.624 879.145C53.144 879.21 55.064 874.73 55 866.857C55.064 858.985 53.144 854.505 49.624 854.441C46.104 854.505 44.248 858.985 44.248 866.857C44.248 874.73 46.104 879.209 49.624 879.145ZM20.696 865.961L14.936 865.961L14.936 854.697L4.056 854.697L4.056 847.785L37.336 847.786L37.336 854.697L20.696 854.697L20.696 865.961ZM14.296 819.481C21.144 819.481 27.672 815.001 30.424 806.169L35.8 809.497C33.816 815.833 29.784 820.313 24.728 822.809C30.68 825.369 35.352 830.105 37.592 836.889L32.088 840.345C29.144 831.257 21.848 826.521 14.296 826.521L13.656 826.521L13.656 838.425L8.024 838.425L8.024 807.705L13.656 807.705L13.656 819.481L14.296 819.481ZM49.752 832.665C42.968 832.665 39 825.369 39 813.593C39 801.817 42.968 794.649 49.752 794.649C56.472 794.649 60.504 801.817 60.504 813.593C60.504 825.369 56.472 832.665 49.752 832.665ZM49.752 825.753C53.208 825.753 55.064 821.337 55 813.593C55.064 805.849 53.208 801.497 49.752 801.433C46.296 801.497 44.44 805.849 44.504 813.593C44.44 821.337 46.296 825.753 49.752 825.753ZM37.72 802.201L4.056 802.201L4.056 795.161L17.624 795.161L17.624 787.225L23.384 787.225L23.384 795.161L37.72 795.161L37.72 802.201ZM20.056 763.144C29.4 763.144 39.128 757.704 42.968 748.552L48.472 752.392C45.528 759.048 39.576 763.977 32.408 766.536C40.152 769.096 46.744 774.088 49.88 780.681L44.376 784.649C40.28 775.753 29.72 770.185 20.056 770.185L15.32 770.185L15.32 782.601L9.68801 782.601L9.68801 750.728L15.32 750.728L15.32 763.144L20.056 763.144ZM60.504 744.456L4.056 744.456L4.056 737.416L60.504 737.416L60.504 744.456ZM4.18401 681.72L46.808 681.72L46.808 688.76L41.944 688.76L41.944 699.768L37.08 699.768L37.08 688.76L4.18401 688.76L4.18401 681.72ZM29.528 729.336C29.464 718.968 29.336 704.952 27.864 692.984L32.856 692.6C33.624 697.208 34.136 702.072 34.456 706.808L45.272 706.808L45.272 713.72L34.84 713.72C35.032 719.032 35.032 724.088 35.032 728.568L29.528 729.336ZM16.216 725.112C10.2 725.048 6.16801 719.352 6.23201 710.904C6.16801 702.712 10.2 696.952 16.216 696.952C22.232 696.952 26.136 702.712 26.072 710.904C26.136 719.288 22.232 725.048 16.216 725.112ZM59.48 721.912L42.712 721.912L42.712 714.872L53.848 714.872L53.848 680.44L59.48 680.44L59.48 721.912ZM16.216 718.456C19.288 718.52 21.016 715.448 21.08 710.904C21.016 706.616 19.288 703.544 16.216 703.48C13.144 703.544 11.288 706.616 11.352 710.904C11.288 715.448 13.144 718.52 16.216 718.456ZM5.72001 611.797L10.968 611.797L10.968 619.605L19.544 619.605L19.544 612.181L24.792 612.181L24.792 653.653L19.544 653.653L19.544 646.101L10.968 646.101L10.968 653.909L5.72001 653.909L5.72001 611.797ZM33.88 658.518L28.376 658.518L28.376 607.061L33.88 607.061L33.88 658.518ZM60.12 652.502L46.296 652.502L46.296 620.373L42.712 620.373L42.712 652.502L37.592 652.502L37.592 613.461L51.032 613.461L51.032 645.59L54.872 645.59L54.872 611.925L60.12 611.925L60.12 652.502ZM19.544 639.189L19.544 626.517L10.968 626.517L10.968 639.189L19.544 639.189ZM4.18401 554.949L42.2 554.949L42.2 561.477L23.768 561.477L23.768 567.493L37.464 567.493L37.464 573.893L5.20801 573.893L5.20801 567.493L18.136 567.493L18.136 561.477L4.18401 561.477L4.18401 554.949ZM36.824 600.901L19.8 600.901L19.8 586.181L13.784 586.181L13.784 600.901L8.15201 600.901L8.15201 579.525L24.92 579.525L24.92 594.117L31.448 594.117C31.384 587.525 31 582.533 29.912 576.837L35.288 576.197C36.696 582.917 36.888 588.613 36.824 597.061L36.824 600.901ZM54.872 596.293C53.336 585.029 47.32 577.797 40.792 577.733L39.64 577.733L39.64 570.821L40.792 570.821C47.32 570.821 53.336 563.653 54.872 552.261L60.248 554.949C58.904 563.845 54.936 570.821 49.304 574.277C54.936 577.797 58.904 584.773 60.248 593.605L54.872 596.293ZM31.832 496.436L37.336 496.436L37.336 547.893L31.832 547.893L31.832 525.748L26.584 525.748L26.584 543.029L20.952 543.028L20.952 535.476L11.352 535.476L11.352 543.284L5.72001 543.284L5.72001 501.172L11.352 501.172L11.352 508.98L20.952 508.98L20.952 501.556L26.584 501.556L26.584 518.836L31.832 518.836L31.832 496.436ZM59.864 541.877L41.688 541.877L41.688 502.708L59.864 502.708L59.864 541.877ZM54.232 534.965L54.232 509.492L47.192 509.492L47.192 534.965L54.232 534.965ZM20.952 528.564L20.952 515.892L11.352 515.892L11.352 528.564L20.952 528.564ZM55 465.7L61.4 465.7L61.4 494.884L55 494.884L55 465.7ZM4.05601 419.345L27.352 419.345L27.352 411.409L33.24 411.409L33.24 419.345L60.504 419.345L60.504 426.385L4.05601 426.385L4.05601 419.345ZM44.888 464.786C44.888 460.498 44.888 455.506 44.76 450.321L39.448 450.321C38.424 456.466 34.584 460.498 29.272 460.434C22.872 460.498 18.648 454.865 18.648 446.737C18.648 438.737 22.872 433.042 29.272 433.042C34.584 433.042 38.424 437.137 39.512 443.282L44.504 443.282C44.248 438.545 43.864 433.809 43.224 429.329L48.344 428.946C50.52 441.041 50.584 454.098 50.648 463.762L44.888 464.786ZM16.088 463.634L10.584 463.634L10.584 450.321L4.31201 450.321L4.31201 443.281L10.584 443.282L10.584 429.969L16.088 429.969L16.088 463.634ZM29.272 453.905C32.472 453.905 34.392 451.025 34.392 446.737C34.392 442.513 32.472 439.697 29.272 439.697C25.944 439.697 23.96 442.513 24.024 446.737C23.96 451.025 25.944 453.905 29.272 453.905ZM4.18401 361.345L46.808 361.345L46.808 368.385L41.944 368.385L41.944 379.393L37.08 379.393L37.08 368.385L4.18401 368.385L4.18401 361.345ZM29.528 408.961C29.464 398.593 29.336 384.577 27.864 372.609L32.856 372.225C33.624 376.833 34.136 381.697 34.456 386.433L45.272 386.433L45.272 393.345L34.84 393.345C35.032 398.657 35.032 403.713 35.032 408.193L29.528 408.961ZM16.216 404.737C10.2 404.673 6.16801 398.977 6.23201 390.529C6.16801 382.337 10.2 376.577 16.216 376.577C22.232 376.577 26.136 382.337 26.072 390.529C26.136 398.913 22.232 404.673 16.216 404.737ZM59.48 401.537L42.712 401.537L42.712 394.497L53.848 394.497L53.848 360.065L59.48 360.065L59.48 401.537ZM16.216 398.081C19.288 398.145 21.016 395.073 21.08 390.529C21.016 386.241 19.288 383.169 16.216 383.105C13.144 383.169 11.288 386.241 11.352 390.529C11.288 395.073 13.144 398.145 16.216 398.081ZM36.568 349.425C25.496 349.489 16.344 346.544 8.40801 340.72L8.40801 333.296C14.296 337.712 26.072 341.232 36.568 341.232C47 341.232 58.776 337.713 64.6 333.297L64.6 340.72C56.728 346.545 47.576 349.489 36.568 349.425ZM45.144 307.439L47.576 307.439L47.576 291.375L45.144 291.375L45.144 307.439ZM39.32 307.439L41.688 307.439L41.688 291.375L39.32 291.375L39.32 307.439ZM35.672 313.199L35.672 285.359L51.16 285.359L51.16 313.199L35.672 313.199ZM36.504 302.447L36.504 296.623L49.88 296.623L49.88 302.447L36.504 302.447ZM53.272 319.855L53.272 277.999L58.52 277.999L58.52 319.855L53.272 319.855ZM10.328 328.623L10.328 270.127L14.744 270.127L14.744 328.623L10.328 328.623ZM29.016 328.815L29.016 269.871L33.88 269.871L33.88 328.815L29.016 328.815ZM22.872 322.991L22.872 276.335L27.032 276.335L27.032 322.991L22.872 322.991ZM4.24801 321.007L4.24801 278.063L20.888 278.063L20.888 321.327L16.728 321.327L16.728 285.807L8.34401 285.807L8.34401 321.007L4.24801 321.007ZM0.600011 303.663L0.600011 295.855L31.96 295.855L31.96 303.663L0.600011 303.663ZM34.904 322.863L34.904 315.951L60.824 315.951L60.824 322.863L34.904 322.863ZM34.904 282.415L34.904 275.439L60.824 275.439L60.824 282.415L34.904 282.415ZM0.984011 228.911L0.984011 221.423L11.032 221.423L11.032 228.911L0.984011 228.911ZM7.70401 243.119L7.70401 206.063L20.312 206.063L20.312 213.167L14.232 213.167L14.232 236.335L20.376 236.335L20.376 243.119L7.70401 243.119ZM19.416 238.383L19.416 210.991L26.008 210.991L26.008 238.383L19.416 238.383ZM30.616 242.223L30.616 206.319L37.464 206.319L37.464 242.223L30.616 242.223ZM33.944 234.991L33.944 227.695C47.704 228.271 56.152 230.191 60.76 243.951C58.904 244.591 56.088 246.511 54.68 247.983C51.224 236.399 45.08 235.375 33.944 234.991ZM33.176 223.215L33.176 215.983L51.352 215.983C53.208 215.983 53.464 215.855 53.464 215.023C53.464 214.639 53.464 213.295 53.464 212.847C53.464 211.823 52.44 211.631 45.912 211.503C47.064 210.095 48.28 207.023 48.728 205.103C57.752 205.743 60.184 207.535 60.184 212.015C60.184 213.167 60.184 215.279 60.184 216.303C60.184 221.935 58.008 223.215 51.416 223.215L33.176 223.215ZM3.41601 262.831L3.41601 247.727L10.264 247.727L10.264 256.111L60.824 256.111L60.824 262.831L3.41601 262.831ZM3.41601 250.095L3.41601 248.815L3.16001 247.727L5.97601 242.735C11.48 244.399 18.456 246.511 23.448 248.367C28.44 244.399 32.728 243.631 36.44 243.631C40.6 243.631 43.288 244.463 44.696 246.511C45.4 247.535 45.848 248.751 46.04 250.159C46.168 251.311 46.232 252.847 46.232 254.319C44.376 254.383 41.496 254.959 39.64 255.983C39.704 254.831 39.768 253.999 39.704 253.231C39.704 252.527 39.576 251.887 39.192 251.439C38.616 250.671 37.336 250.351 35.544 250.351C32.536 250.351 28.568 251.183 24.28 254.831C18.52 253.039 9.68801 250.991 5.59201 250.095L3.41601 250.095ZM36.44 185.327C47.512 185.263 56.664 188.207 64.6 194.031L64.6 201.455C58.712 197.039 46.936 193.519 36.44 193.519C26.008 193.519 14.232 197.039 8.40801 201.455L8.40801 194.031C16.28 188.207 25.432 185.263 36.44 185.327ZM55.512 170.734C55.512 173.358 53.336 175.598 50.648 175.598C48.024 175.598 45.848 173.358 45.784 170.734C45.848 168.11 48.024 165.869 50.648 165.869C53.336 165.869 55.512 168.11 55.512 170.734ZM26.328 175.598C23.704 175.598 21.528 173.357 21.464 170.733C21.528 168.11 23.704 165.869 26.328 165.869C29.016 165.869 31.192 168.11 31.192 170.733C31.192 173.358 29.016 175.598 26.328 175.598ZM42.968 134.48C43.032 122 46.104 114.896 51.8 114.896C57.496 114.896 60.504 122 60.504 134.48C60.504 147.088 57.496 154.128 51.8 154.192C46.104 154.128 43.032 147.088 42.968 134.48ZM40.408 160.08L34.904 160.08L34.904 137.936L31.512 137.936C31 147.728 28.312 153.168 23.64 153.168C18.2 153.168 15.448 146.384 15.448 134.352C15.448 122.32 18.2 115.664 23.64 115.664C28.312 115.664 31.064 121.04 31.512 130.896L34.904 130.896L34.904 108.624L40.408 108.624L40.408 160.08ZM13.656 157.52L8.40801 157.52L8.40801 137.936L3.54401 137.936L3.54401 130.896L8.40801 130.896L8.40801 111.44L13.656 111.44L13.656 157.52ZM51.8 147.024C54.296 147.024 55.448 142.864 55.384 134.48C55.448 126.096 54.296 121.936 51.8 121.936C49.368 121.936 48.088 126.096 48.088 134.48C48.088 142.864 49.368 147.024 51.8 147.024ZM23.64 145.744C25.752 145.744 26.84 141.904 26.84 134.352C26.84 126.864 25.752 123.088 23.64 123.088C21.272 123.088 20.184 126.864 20.184 134.352C20.184 141.904 21.272 145.744 23.64 145.744ZM4.18401 57.5355L45.528 57.5355L45.528 64.4475L31.576 64.4475L31.576 77.8875C34.584 80.5755 36.44 84.6075 36.44 89.1515C36.44 97.6635 30.36 104.064 21.976 104C13.592 104.064 7.51201 97.6635 7.51201 89.1515C7.51201 84.6075 9.36801 80.5755 12.376 77.8875L12.376 64.4475L4.18401 64.4475L4.18401 57.5355ZM21.976 97.4715C27.032 97.4075 30.232 93.9515 30.296 89.1515C30.232 84.4795 27.032 80.9595 21.976 80.9595C16.92 80.9595 13.72 84.4795 13.656 89.1515C13.72 93.9515 16.92 97.4075 21.976 97.4715ZM59.48 94.5275L41.304 94.5275L41.304 87.6155L53.848 87.6155L53.848 56.1275L59.48 56.1275L59.48 94.5275ZM25.944 74.8155L25.944 64.4475L18.008 64.4475L18.008 74.8155C19.224 74.4955 20.568 74.3035 21.976 74.3035C23.384 74.3035 24.728 74.4955 25.944 74.8155ZM4.05601 2.479L32.6 2.479L32.6 9.391L4.05601 9.391L4.05601 2.479ZM28.12 48.687C25.432 34.607 19.544 28.015 11.992 27.183L11.992 45.615L6.36001 45.615L6.36001 19.503C21.528 19.567 30.104 28.719 33.752 46.127L28.12 48.687ZM40.408 39.983L35.032 39.983L35.032 2.479L49.752 2.479L49.752 32.815L54.488 32.815L54.488 0.814999L59.992 0.814999L59.992 39.855L44.632 39.855L44.632 9.519L40.408 9.519L40.408 39.983Z" fill="black"/>
</svg>
